<svg width="156" height="36" fill="none" xmlns="http://www.w3.org/2000/svg"><path d="M8.87513.296875H26.6556c4.9016 0 8.8752 3.953075 8.8752 8.829485V26.8206c0 4.8734-3.9711 8.824-8.8697 8.824H8.86979C3.97112 35.6446 0 31.694 0 26.8205V9.12636C0 4.24995 3.97355.296875 8.87513.296875z" fill="#E95927"/><path d="M17.7653 28.7733c5.996 0 10.8566-4.8357 10.8566-10.8007 0-5.9651-4.8606-10.80072-10.8566-10.80072-5.9959 0-10.85661 4.83562-10.85661 10.80072 0 5.965 4.86071 10.8007 10.85661 10.8007z" fill="#fff"/><path opacity=".4" d="M35.5086 25.8305v-12.421L24.5368 8.14844c2.9475 2.01396 4.9036 5.55526 4.9037 9.58806.0011 6.2712-4.7268 11.356-10.5598 11.3571-.7199.0001-1.4229-.0775-2.1024-.2249l11.2767 6.7724c5.2559-.7499 7.739-5.3962 7.4536-9.8106z" fill="url(#paint0_linear)"/><path fill-rule="evenodd" clip-rule="evenodd" d="M17.7633 6.1875c-6.636.00123-11.99625 5.4317-11.83801 12.069.14899 6.2503 5.27401 11.3469 11.55681 11.4929 6.6716.1549 12.1282-5.1797 12.127-11.7816-.0002-6.5062-5.3019-11.78045-11.8419-11.7803h-.0039zm0 22.0732c-5.8961 0-10.64421-4.89-10.3701-10.8157.24468-5.291 4.5613-9.58546 9.8798-9.82888 5.9564-.27254 10.8717 4.45098 10.8717 10.31678.0009 5.703-4.6453 10.327-10.3778 10.3279-.0013-.0001-.0025-.0001-.0036-.0001z" fill="#353757"/><path d="M55.7109 24.1953c-.813-1.1693-1.2134-2.4774-1.2252-3.9244l-.0355-9.7895c0-.73169.3897-1.25441 1.1809-1.56814.0826-.03491.2361-.05796.4604-.08123.7202 0 1.2401.40659 1.5706 1.21977.0355.0465.0473.0812.0473.1278.0118.0928.0237.1859.0237.2672l.0236 9.4442c.0119 1.3662.3436 2.3042.9835 2.8137.7822.6831 1.7418 1.0306 2.8675 1.0306 1.4928 0 2.6185-.5788 3.377-1.7484.2726-.4979.4029-.9957.4029-1.5168V10.917c0-.99571.4029-1.64415 1.2206-1.95674.0473-.03468.1185-.03468.1895-.03468l.2013-.01164h.0337c.6951 0 1.2136.39359 1.5316 1.19236.0236.0347.0352.058.0352.0927.0237.1273.0353.2893.0353.4631v9.3195c0 3.2531-1.555 5.4526-4.6538 6.5987-.919.243-1.7083.3589-2.368.3589h-.0471c-2.3912-.0002-4.3468-.9147-5.855-2.7439zM51.9592 26.9383h-8.327c-.6644 0-1.2306-.5043-1.2647-1.1568-.0218-.4162.1135-.6302.3398-.9652l7.6797-9.5984c1.1324-2.4063-1.4987-4.8641-3.9178-3.5188-.7903.4662-1.3154 1.3193-1.3154 2.2515 0 .8064-.7708 1.44-1.6673 1.2248-.533-.128-.9668-.7137-.9636-1.2533.0082-1.3861.6117-2.643 1.5258-3.5422v-.0261c1.6305-1.60372 4.0509-1.96628 6.0235-1.11226 1.2883.5695 2.3147 1.57846 2.8141 2.84636.5783 1.3446.6585 3.1822-.315 4.3979l-6.3398 7.9427h5.7599c.7931 0 1.3866.7075 1.2403 1.5125-.1007.5539-.7005.9973-1.2725.9973zM84.9539 25.8122c-.0698-.22-.0814-.4052-.0814-.5556v-9.7331c-2.189 2.8601-3.6125 4.6779-4.2585 5.4536-.2034.22-.5862.3706-1.1364.4399-.6937 0-1.3636-.4978-1.9737-1.4935l-3.2778-4.1684h-.0238v9.533c0 .7308-.4229 1.2526-1.2324 1.5426-.1571.0696-.3262.1045-.4832.1045h-.0482c-.7852 0-1.3169-.4175-1.6671-1.2643l-.0241-.1275c0-.1045-.0242-.1971-.0242-.2667V10.5689c0-.78875.435-1.31079 1.3169-1.63547.0482-.01164.0846-.01164.1329-.01164.1085-.01163.205-.01163.2776-.01163.749 0 1.4136.47549 2.0055 1.47304l5.0741 6.4724c3.6846-4.7324 5.6901-7.27281 5.968-7.57422.012-.02327.0482-.04632.0605-.04632.3503-.23204.7008-.3249 1.039-.3249h-.1306c.7267 0 1.259.38651 1.5631 1.14834.0086.0342.0227.0897.0313.1237.0232.1741.0585.3598.0585.5455V25.083c0 .9377-.4192 1.5396-1.2572 1.7828-.093.0347-.2095.0696-.3957.0696h-.0116c-.6637-.0002-1.164-.3938-1.5015-1.1232zM97.0676 26.8231c-.5998-.081-1.1878-.2314-1.7406-.4164-.4938-.1504-.9408-.3587-1.3996-.5901-.3528-.2083-.7058-.405-1.0468-.671-.3881-.2544-.7527-.5784-1.0937-.9024-.7174-.7174-1.3054-1.5734-1.7642-2.5335-.0353-.1041-.0471-.1504-.0471-.162v-.0347c-.4233-1.0065-.694-2.1172-.7764-3.3436 0-.104 0-.185.0234-.266-.0234-.104-.0234-.185-.0234-.266.0824-1.2264.3528-2.3485.7764-3.355v-.0463c.447-1.0297 1.0584-1.9205 1.8111-2.6725.341-.347.7056-.6364 1.0937-.9024.3409-.266.694-.486 1.0468-.6594.4586-.25462.9055-.45107 1.3996-.60166.5528-.19668 1.1408-.33541 1.7406-.42804.4233-.03468.8469-.04632 1.2468-.04632.4233 0 .8468.01164 1.2586.04632.6472.09263 1.2472.24299 1.8352.46272.376.11568.693.24299 1.011.42804.47.19664.929.46274 1.341.79834.388.266.74.5554 1.093.9024.741.7174 1.318 1.5734 1.776 2.5335.024.1041.047.139.047.1504v.0315s.705 2.1306.696 3.3579v.5325c.009 1.2043-.262 2.3043-.662 3.3116-.024.0117-.034.0347-.034.0347v.0664c-.458 1.0064-1.046 1.9088-1.823 2.6609-.352.324-.705.6477-1.093.9024-.353.266-.683.4627-1.059.671-.435.2314-.882.4397-1.376.59-.553.1851-1.141.3357-1.7525.4164-.4117.0464-.835.0464-1.2586.0464-.3996 0-.8229 0-1.2463-.0461zm3.2394-3.4547c.329-.1157.612-.2663.894-.3936.4-.2316.824-.5558 1.178-.9147.035-.0347.07-.0693.082-.0693l.024-.0117c.788-.7757 1.294-1.6905 1.565-2.7558.094-.4631.13-.8914.13-1.3199 0-.4285-.036-.88-.13-1.3432-.27-1.0537-.777-1.9453-1.565-2.7327l-.048-.0464c-.376-.3589-.812-.6947-1.235-.9494-.283-.1389-.565-.2779-.895-.3935-.7417-.2086-1.448-.3243-2.0835-.3243-.6003.0233-1.2477.1273-1.9069.3243-.3178.1159-.6122.2548-.8829.3935-.4474.2547-.8475.5905-1.2477.9494l-.0352.0464c-.7768.7874-1.2948 1.6788-1.5655 2.7327-.0823.4632-.1531.9147-.1531 1.3432s.0708.8568.1531 1.3199c.2707 1.0653.7887 1.9801 1.5655 2.7558l.0352.0347c.4002.3822.8005.7064 1.2477.961.2707.1273.5651.2779.8829.3936.6592.1853 1.3066.301 1.9069.3359.6353 0 1.3416-.139 2.0835-.3359zM108.637 25.8151c-.07-.2194-.105-.3812-.105-.5313V10.4957c0-.4513.165-.81001.494-1.08792.165-.17363.377-.30095.647-.41663.071-.02304.118-.03468.177-.04631.118-.02305.2-.03468.282-.03468h.118c.517.03468.941.24299 1.223.67103.224.20831.424.45131.647.75231l9.588 10.6696h.046v-10.467c0-.67951.397-1.17463 1.168-1.48539.082-.03446.233-.06914.455-.08055.678 0 1.215.39153 1.554 1.18604.011.0461.046.1266.046.1727l.024.2533v14.7045c0 .7023-.421 1.2321-1.203 1.5315-.035.0114-.07.0344-.105.0344l-.269.0345c-.035 0-.07.0114-.093.0114-.573-.0345-1.122-.426-1.706-1.1977-6.167-6.8739-9.392-10.4896-9.695-10.8581h-.151v10.2562c0 .9472-.419 1.5363-1.245 1.7672-.105.0347-.221.0693-.384.0693h-.035c-.664 0-1.152-.3812-1.478-1.1203zM127.867 26.5085c-.209-.1845-.384-.4497-.5-.7725-.012-.0578-.012-.0922-.012-.1385-.011-.1152-.035-.2421-.035-.3115V10.485c0-.3475.118-.67154.343-.93803.177-.23159.473-.4285.827-.55582.047-.03468.083-.03468.13-.04631.118-.02328.225-.03468.307-.03468h9.111c.839 0 1.394.34726 1.689 1.04203l.048.15061c.012.0347.012.0579.012.0926.035.1043.059.1969.059.2896v.0524s-.374.938-.845 1.239c-.082.0696-.177.1506-.294.1001h-.036c-.059.1198-.106.1431-.176.1661l-.094.0347-.388.0272h-7.445v4.1069h4.892c.645 0 1.112.3309 1.435.9241.048.1141.084.2054.12.3194.012.0229.012.0571.035.0799 0 .0913.012.1711.012.2624v.1389s-.427 1.0307-1.003 1.3433l-.224.1159c-.047.0346-.094.0463-.129.0107h-.071c-.094.0703-.2.0819-.283.2281h-4.784v4.107h7.309c.908 0 1.444.392 1.711 1.2109.012.0577.012.0922.012.1383.023.1152.035.1845.058.2306 0 .6457-.349 1.1418-1.071 1.4877-.233.0922-.465.1268-.71.1268h-8.974c-.419-.0002-.745-.1271-1.036-.4269zM146.655 25.8278l-.047-.1506c-.011-.1506-.035-.2779-.035-.3822v-6.7386l-4.713-6.3684c-.573-.7178-.854-1.2389-.854-1.6441v-.0712c0-.0689.024-.1495.024-.2644l.023-.1379c.327-.78143.818-1.18368 1.542-1.18368.433 0 .818.17226 1.18.51702.246.27585 1.729 2.26386 4.428 5.90676 2.699-3.6429 4.182-5.63091 4.416-5.90676.362-.34476.747-.51702 1.203-.51702.713 0 1.203.40225 1.519 1.18368.011.0575.011.0806.035.1379 0 .0919.011.1953.011.2644v.071c0 .4052-.28.9263-.83 1.6441l-4.737 6.3683v6.7389c0 .1043-.011.2316-.035.3822-.011.0693-.035.1042-.046.1506-.34.7527-.842 1.1116-1.544 1.1116h.004c-.702 0-1.205-.3589-1.544-1.1116zM24.0812 13.0625c.3274 0 .5929.2378.5929.5312v2.1494c0 1.4248-.8982 2.1858-2.3208 2.227-1.4156.0425-2.614-.6761-2.614-2.227v-2.152c0-.2873.2599-.5201.5805-.5201s.5806.2328.5806.5201v2.152c0 .8573.5256 1.3034 1.3846 1.2673.7973-.0475 1.0828-.5486 1.0828-1.2673v-2.1557c0-.2899.2624-.5249.5859-.5249h.1275zM14.8033 17.5522c.0239-.2742-.2504-.5-.5669-.5h-1.5219l1.7187-1.9016c.2975-.3282.273-.8241.0962-1.187-.1526-.3423-.4663-.6145-.86-.7683-.1921-.0734-.3981-.1135-.6058-.1199-.0933-.0083-.1971-.0129-.3063-.0129-.1297 0-.2516.0064-.3575.0177-.1815.0138-.3612.0533-.5308.1187-.1415.0608-.4672.2282-.7396.5735-.1215.1757-.2004.3774-.2193.593-.0029.0209-.0044.0422-.0044.0637 0 .0042.0003.0083.0003.0124-.0002.0083-.0005.0165-.0005.0249 0 .0439.0102.0858.0283.1245.0793.2219.3175.383.599.383.2604 0 .4839-.138.5785-.3344.035-.0509.0551-.1099.0551-.1731 0-.0676.0119-.1336.0336-.1965.0466-.2472.2716-.442.5566-.4814.0054-.0015.0109-.0032.0163-.0045.0023.0005.0044.0012.0065.0018.1319-.0142.2741.0008.4294.0937.2091.1251.3499.3311.322.5504-.0184.1451-.0981.2742-.2161.3674-.002.0038-.0036.0076-.0056.0114l-2.3476 2.5905c-.0656.0858-.1063.1423-.1045.244.0033.1844.1866.3287.399.3287h2.9998c.0172 0 .0342-.0012.0507-.003.2688-.01.4767-.1862.4968-.4167z" fill="#353757"/><path d="M24.4363 21.3164c-.2208-.0439-.4387-.0917-.6514-.1418l-.2209-.0536-.2253-.066c-.1474-.0445-.2948-.0935-.4392-.1409l-.1445.1149c-.0455.0399-.0933.0767-.143.1105l-.2961.2068c.2253.0936.458.1902.6935.2698.2311.0752.4739.1456.7166.2115l-.2918.2347c-.0983.0751-.1893.1625-.2918.23l-.2991.2161-.1473.1059-.0391.026-.0173.0139-.0274.0183c-.0223.0166-.046.031-.0709.043l-.5619.3495c-.6256.3691-1.2941.6481-1.9873.8327-1.3892.3547-2.778.1578-3.3499.0465-.8342-.1982-1.6303-.5481-2.3508-1.0379-.398-.267-.7755-.5669-1.1291-.897-.18-.1646-.3506-.3406-.5195-.5251-.0838-.0906-.166-.186-.245-.2814-.0008-.0008-.0015-.0019-.0023-.0027-.1204-.1487-.3359-.1538-.4614-.01l-.0084.0096c-.1059.1213-.1104.3078-.0097.434.0277.035.0558.0696.0847.1057.0868.1053.1737.2042.2637.3045.1815.1942.363.3835.5553.5596.3768.3509.7792.6696 1.2037.9529.6614.446 1.3806.7839 2.1332 1.0078l-.0026.0082c.1462.0407.2908.076.4332.1063.041.0096.0815.0209.1226.0298.0606.0148.1179.0279.1784.0379l.1767.0246c.1178.0132.2373.0379.3553.0461l.345.024c.0247.0017.0618-.0012.1012-.0058 1.4366.0502 2.4462-.3278 2.4977-.3477.6373-.1932 1.2526-.4628 1.8335-.8048l.5894-.3663c.0245-.0168.0491-.0307.0736-.0446l.0289-.0214.0173-.0139.039-.026.1546-.1103.312-.2254c.1054-.0705.2052-.1594.3063-.2391l.302-.2421c-.0519.3096-.1126.6223-.1748.9413-.0679.3127-.1488.6223-.2282.9412l.3612-.2606c.0593-.0446.1199-.0889.1763-.1381l.0889-.0729c.0536-.044.091-.1067.1056-.1768.0334-.1625.0653-.3245.0973-.4876l.0563-.2959.0447-.3004c.0457-.2986.0864-.5952.1233-.8877.0202-.1619-.0841-.3099-.235-.3398z" fill="#E95A27"/><defs><linearGradient id="paint0_linear" x1="19.7261" y1="18.4815" x2="33.3796" y2="24.4035" gradientUnits="userSpaceOnUse"><stop offset=".2482" stop-opacity=".3"/><stop offset="1" stop-opacity="0"/></linearGradient></defs></svg>