<?xml version="1.0" encoding="utf-8"?>
<!-- Generator: Adobe Illustrator 24.0.1, SVG Export Plug-In . SVG Version: 6.00 Build 0)  -->
<svg version="1.1" id="Layer_1" xmlns="http://www.w3.org/2000/svg" xmlns:xlink="http://www.w3.org/1999/xlink" x="0px" y="0px"
	 viewBox="0 0 2048 2048" enable-background="new 0 0 2048 2048" xml:space="preserve">
<g>
	<path fill="#E95A27" d="M562.133,100.65h925.729c255.201,0,462.082,206.881,462.082,462.082c0,0,0,0,0,0v925.728
		c0,255.2-206.88,462.081-462.081,462.081c0,0,0,0,0,0H562.134c-255.201,0-462.082-206.881-462.082-462.082V562.731
		C100.052,307.531,306.932,100.65,562.133,100.65C562.133,100.65,562.133,100.65,562.133,100.65z"/>
	<linearGradient id="SVGID_1_" gradientUnits="userSpaceOnUse" x1="1072.072" y1="1063.9777" x2="1812.1997" y2="1409.1049">
		<stop  offset="0.2482" style="stop-color:#010101;stop-opacity:0.3"/>
		<stop  offset="1" style="stop-color:#010101;stop-opacity:0"/>
	</linearGradient>
	<path opacity="0.4" fill="url(#SVGID_1_)" enable-background="new    " d="M1948.718,1443.666V801.928l-609.437-271.813
		c163.721,104.054,272.373,287.015,272.377,495.37c0.061,324.004-262.547,586.71-586.551,586.771
		c-39.988,0.007-79.036-4.002-116.778-11.618l626.369,349.902C1826.644,1911.791,1964.569,1671.737,1948.718,1443.666z"/>
	<circle fill="#FFFFFF" cx="1024.729" cy="1027.273" r="515.23"/>
	<path fill-rule="evenodd" clip-rule="evenodd" fill="#353757" d="M1024.888,438.934
		c-324.004,0.061-586.612,262.767-586.551,586.771s262.767,586.612,586.771,586.551c324.004-0.061,586.612-262.767,586.551-586.771
		l0,0c-0.006-323.95-262.625-586.557-586.574-586.551C1025.019,438.934,1024.953,438.934,1024.888,438.934z M1024.888,1540.817
		c-284.002,0-514.231-230.229-514.231-514.231s230.229-514.231,514.231-514.231s514.231,230.229,514.231,514.231
		c0.048,283.954-230.103,514.183-514.057,514.231C1025.004,1540.817,1024.946,1540.817,1024.888,1540.817z"/>
	<g>
		<path fill="#353757" d="M1330.492,760.888c17.25,0,31.235,13.984,31.235,31.235v126.408c0,83.782-46.815,128.54-120.97,130.965
			c-73.787,2.499-136.257-39.76-136.257-130.965V792.122c0-17.25,13.984-31.235,31.235-31.235l0,0
			c17.25,0,31.235,13.984,31.235,31.235v126.408c0,50.416,28.148,76.653,74.155,74.522c42.7-2.793,57.986-32.263,57.986-74.522
			V792.122c0-17.25,13.984-31.235,31.235-31.235H1330.492z"/>
		<path fill="#353757" d="M854.347,994.147h-32.299h-49.585l89.749-114.308c15.535-19.727,14.255-49.542,5.026-71.359
			c-7.973-20.573-24.354-36.942-44.915-46.184c-10.033-4.416-20.792-6.822-31.638-7.214c-4.875-0.494-10.288-0.771-15.997-0.771
			c-6.776,0-13.14,0.389-18.674,1.069c-9.478,0.831-18.86,3.196-27.717,7.129c-7.397,3.655-24.398,13.723-38.628,34.477
			c-6.341,10.558-10.462,22.689-11.455,35.647c-0.146,1.257-0.23,2.533-0.23,3.829c0,0.249,0.013,0.495,0.019,0.743
			c-0.01,0.5-0.027,0.999-0.027,1.501c0,2.638,0.53,5.16,1.477,7.481c4.142,13.337,16.58,23.023,31.28,23.023
			c13.602,0,25.265-8.294,30.213-20.099c1.822-3.057,2.877-6.607,2.877-10.405c0-4.067,0.624-8.035,1.756-11.82
			c2.432-14.856,14.189-26.572,29.067-28.94c0.285-0.087,0.571-0.191,0.856-0.272c0.115,0.033,0.227,0.075,0.341,0.109
			c1.429-0.177,2.881-0.279,4.358-0.279c19.381,0,35.092,15.711,35.092,35.092c0,10.299-4.438,19.563-11.505,25.982
			c-0.102,0.23-0.19,0.459-0.296,0.688l-122.569,155.742c-3.358,5.05-5.461,8.408-5.461,14.279c0,11.332,8.819,20.15,20.15,20.15
			h23.855h109.634h23.855c0.902,0,1.781-0.075,2.648-0.183c14.761-0.632,26.024-12.331,26.024-27.252
			C881.63,1006.659,869.723,994.147,854.347,994.147z"/>
	</g>
	<path fill="#E95A27" d="M737.933,1203.974c-5.018,5.417-5.229,13.742-0.458,19.378c1.319,1.558,2.646,3.104,4.013,4.716
		c4.115,4.703,8.231,9.112,12.493,13.595c8.598,8.672,17.196,17.122,26.308,24.985c17.853,15.669,36.922,29.896,57.026,42.548
		c38.941,24.751,82.075,42.184,127.278,51.441c2.866,0.661,5.585,1.249,8.451,1.69l8.377,1.103
		c5.585,0.588,11.243,1.69,16.828,2.058l16.351,1.071c3.964,0.26,10.459,0.472,14.432,0.472h2.801l16.255-0.213
		c0.382-0.005,0.764-0.025,1.145-0.06l16.257-1.491c11.231-0.957,22.396-2.577,33.436-4.85
		c44.843-8.975,88.026-24.84,128.013-47.031l29.983-17.563c1.249-0.808,2.499-1.47,3.747-2.131l1.47-1.028l0.882-0.661l1.984-1.249
		l7.863-5.291l15.873-10.802c5.365-3.38,10.435-7.643,15.579-11.464l15.359-11.611c-2.646,14.844-5.732,29.835-8.892,45.121
		c-3.454,14.991-7.569,29.835-11.611,45.121l18.372-12.493c3.013-2.131,6.099-4.262,8.965-6.614l4.527-3.5
		c2.724-2.106,4.633-5.113,5.368-8.476c1.703-7.794,3.325-15.558,4.948-23.37l2.866-14.183l2.278-14.403
		c2.32-14.307,4.391-28.532,6.276-42.548c1.041-7.744-4.262-14.839-11.942-16.276c-11.234-2.102-22.315-4.395-33.134-6.799
		l-11.243-2.572l-11.464-3.16c-7.496-2.131-14.991-4.483-22.339-6.761l-7.349,5.511c-2.315,1.911-4.745,3.678-7.276,5.291
		l-15.064,9.921c11.464,4.483,23.295,9.112,35.273,12.934c11.758,3.601,24.103,6.981,36.449,10.141l-14.844,11.243
		c-4.997,3.601-9.627,7.79-14.844,11.023l-15.212,10.362l-7.496,5.071l-1.984,1.249l-0.882,0.661l-1.396,0.882
		c-1.132,0.799-2.337,1.488-3.601,2.058l-28.586,16.755c-37.791,21.013-78.625,36.013-121.032,44.459
		c-10.41,2.12-20.938,3.617-31.526,4.483l-15.149,1.416c-0.385,0.036-0.77,0.057-1.157,0.062l-15.147,0.212h-1.747
		c-3.98,0-10.485-0.213-14.457-0.472l-15.25-0.997c-5.218-0.441-10.362-1.323-15.726-2.131l-7.863-1.103
		c-2.719-0.367-5.218-1.028-7.716-1.47c-42.327-8.474-82.701-24.773-119.048-48.06c-18.858-11.923-36.746-25.315-53.498-40.05
		c-8.525-7.349-16.608-15.212-24.618-23.442c-3.968-4.042-7.863-8.304-11.611-12.566c-0.036-0.042-0.072-0.084-0.108-0.126
		c-5.706-6.641-15.91-6.867-21.86-0.444L737.933,1203.974z"/>
</g>
</svg>
