<svg width="156" height="36" viewBox="0 0 156 36" fill="none" xmlns="http://www.w3.org/2000/svg">
<path d="M8.87513 0.296875H26.6556C31.5572 0.296875 35.5308 4.24995 35.5308 9.12636V26.8206C35.5308 31.694 31.5597 35.6446 26.6611 35.6446H26.6556H8.86979C3.97112 35.6446 0 31.694 0 26.8205V9.12636C0 4.24995 3.97355 0.296875 8.87513 0.296875Z" fill="#E95927"/>
<path d="M17.7653 28.7733C23.7613 28.7733 28.6219 23.9376 28.6219 17.9726C28.6219 12.0075 23.7613 7.17188 17.7653 7.17188C11.7694 7.17188 6.90869 12.0075 6.90869 17.9726C6.90869 23.9376 11.7694 28.7733 17.7653 28.7733Z" fill="white"/>
<path opacity="0.4" d="M35.5086 25.8305V13.4095L24.5368 8.14844C27.4843 10.1624 29.4404 13.7037 29.4405 17.7365C29.4416 24.0077 24.7137 29.0925 18.8807 29.0936C18.1608 29.0937 17.4578 29.0161 16.7783 28.8687L28.055 35.6411C33.3109 34.8912 35.794 30.2449 35.5086 25.8305Z" fill="url(#paint0_linear)"/>
<path fill-rule="evenodd" clip-rule="evenodd" d="M17.7633 6.1875C11.1273 6.18873 5.76705 11.6192 5.92529 18.2565C6.07428 24.5068 11.1993 29.6034 17.4821 29.7494C24.1537 29.9043 29.6103 24.5697 29.6091 17.9678C29.6089 11.4616 24.3072 6.18735 17.7672 6.1875C17.7659 6.1875 17.7646 6.1875 17.7633 6.1875ZM17.7633 28.2607C11.8672 28.2607 7.11909 23.3707 7.3932 17.445C7.63788 12.154 11.9545 7.85954 17.273 7.61612C23.2294 7.34358 28.1447 12.0671 28.1447 17.9329C28.1456 23.6359 23.4994 28.2599 17.7669 28.2608C17.7656 28.2607 17.7644 28.2607 17.7633 28.2607Z" fill="#353757"/>
<path d="M55.7109 24.1953C54.8979 23.026 54.4975 21.7179 54.4857 20.2709L54.4502 10.4814C54.4502 9.74971 54.8399 9.22699 55.6311 8.91326C55.7137 8.87835 55.8672 8.8553 56.0915 8.83203C56.8117 8.83203 57.3316 9.23862 57.6621 10.0518C57.6976 10.0983 57.7094 10.133 57.7094 10.1796C57.7212 10.2724 57.7331 10.3655 57.7331 10.4468L57.7567 19.891C57.7686 21.2572 58.1003 22.1952 58.7402 22.7047C59.5224 23.3878 60.482 23.7353 61.6077 23.7353C63.1005 23.7353 64.2262 23.1565 64.9847 21.9869C65.2573 21.489 65.3876 20.9912 65.3876 20.4701V10.917C65.3876 9.92129 65.7905 9.27285 66.6082 8.96026C66.6555 8.92558 66.7267 8.92558 66.7977 8.92558L66.999 8.91394H67.0327C67.7278 8.91394 68.2463 9.30753 68.5643 10.1063C68.5879 10.141 68.5995 10.1643 68.5995 10.199C68.6232 10.3263 68.6348 10.4883 68.6348 10.6621V19.9816C68.6348 23.2347 67.0798 25.4342 63.981 26.5803C63.062 26.8233 62.2727 26.9392 61.613 26.9392H61.5659C59.1747 26.939 57.2191 26.0245 55.7109 24.1953Z" fill="#353757"/>
<path d="M51.9592 26.9383C50.2304 26.9383 45.6673 26.9383 43.6322 26.9383C42.9678 26.9383 42.4016 26.434 42.3675 25.7815C42.3457 25.3653 42.481 25.1513 42.7073 24.8163L50.387 15.2179C51.5194 12.8116 48.8883 10.3538 46.4692 11.6991C45.6789 12.1653 45.1538 13.0184 45.1538 13.9506C45.1538 14.757 44.383 15.3906 43.4865 15.1754C42.9535 15.0474 42.5197 14.4617 42.5229 13.9221C42.5311 12.536 43.1346 11.2791 44.0487 10.3799V10.3538C45.6792 8.75008 48.0996 8.38752 50.0722 9.24154C51.3605 9.81104 52.3869 10.82 52.8863 12.0879C53.4646 13.4325 53.5448 15.2701 52.5713 16.4858L46.2315 24.4285H51.9914C52.7845 24.4285 53.378 25.136 53.2317 25.941C53.131 26.4949 52.5312 26.9383 51.9592 26.9383Z" fill="#353757"/>
<path d="M84.9539 25.8122C84.8841 25.5922 84.8725 25.407 84.8725 25.2566V15.5235C82.6835 18.3836 81.26 20.2014 80.614 20.9771C80.4106 21.1971 80.0278 21.3477 79.4776 21.417C78.7839 21.417 78.114 20.9192 77.5039 19.9235L74.2261 15.7551H74.2023V25.2881C74.2023 26.0189 73.7794 26.5407 72.9699 26.8307C72.8128 26.9003 72.6437 26.9352 72.4867 26.9352H72.4385C71.6533 26.9352 71.1216 26.5177 70.7714 25.6709L70.7473 25.5434C70.7473 25.4389 70.7231 25.3463 70.7231 25.2767V10.5689C70.7231 9.78015 71.1581 9.25811 72.04 8.93343C72.0882 8.92179 72.1246 8.92179 72.1729 8.92179C72.2814 8.91016 72.3779 8.91016 72.4505 8.91016C73.1995 8.91016 73.8641 9.38565 74.456 10.3832L79.5301 16.8556C83.2147 12.1232 85.2202 9.58279 85.4981 9.28138C85.5101 9.25811 85.5463 9.23506 85.5586 9.23506C85.9089 9.00302 86.2594 8.91016 86.5976 8.91016H86.467C87.1937 8.91016 87.726 9.29667 88.0301 10.0585C88.0387 10.0927 88.0528 10.1482 88.0614 10.1822C88.0846 10.3563 88.1199 10.542 88.1199 10.7277V25.083C88.1199 26.0207 87.7007 26.6226 86.8627 26.8658C86.7697 26.9005 86.6532 26.9354 86.467 26.9354H86.4554C85.7917 26.9352 85.2914 26.5416 84.9539 25.8122Z" fill="#353757"/>
<path d="M97.0676 26.8231C96.4678 26.7421 95.8798 26.5917 95.327 26.4067C94.8332 26.2563 94.3862 26.048 93.9274 25.8166C93.5746 25.6083 93.2216 25.4116 92.8806 25.1456C92.4925 24.8912 92.1279 24.5672 91.7869 24.2432C91.0695 23.5258 90.4815 22.6698 90.0227 21.7097C89.9874 21.6056 89.9756 21.5593 89.9756 21.5477V21.513C89.5523 20.5065 89.2816 19.3958 89.1992 18.1694C89.1992 18.0654 89.1992 17.9844 89.2226 17.9034C89.1992 17.7994 89.1992 17.7184 89.1992 17.6374C89.2816 16.411 89.552 15.2889 89.9756 14.2824V14.2361C90.4226 13.2064 91.034 12.3156 91.7867 11.5636C92.1277 11.2166 92.4923 10.9272 92.8804 10.6612C93.2213 10.3952 93.5744 10.1752 93.9272 10.0018C94.3858 9.74718 94.8327 9.55073 95.3268 9.40014C95.8796 9.20346 96.4676 9.06473 97.0674 8.9721C97.4907 8.93742 97.9143 8.92578 98.3142 8.92578C98.7375 8.92578 99.161 8.93742 99.5728 8.9721C100.22 9.06473 100.82 9.21509 101.408 9.43482C101.784 9.5505 102.101 9.67781 102.419 9.86286C102.889 10.0595 103.348 10.3256 103.76 10.6612C104.148 10.9272 104.5 11.2166 104.853 11.5636C105.594 12.281 106.171 13.137 106.629 14.0971C106.653 14.2012 106.676 14.2361 106.676 14.2475V14.279C106.676 14.279 107.381 16.4096 107.372 17.6369V17.9032V18.1694C107.381 19.3737 107.11 20.4737 106.71 21.481C106.686 21.4927 106.676 21.5157 106.676 21.5157V21.5821C106.218 22.5885 105.63 23.4909 104.853 24.243C104.501 24.567 104.148 24.8907 103.76 25.1454C103.407 25.4114 103.077 25.6081 102.701 25.8164C102.266 26.0478 101.819 26.2561 101.325 26.4064C100.772 26.5915 100.184 26.7421 99.5725 26.8228C99.1608 26.8692 98.7375 26.8692 98.3139 26.8692C97.9143 26.8692 97.491 26.8692 97.0676 26.8231ZM100.307 23.3684C100.636 23.2527 100.919 23.1021 101.201 22.9748C101.601 22.7432 102.025 22.419 102.379 22.0601C102.414 22.0254 102.449 21.9908 102.461 21.9908L102.485 21.9791C103.273 21.2034 103.779 20.2886 104.05 19.2233C104.144 18.7602 104.18 18.3319 104.18 17.9034C104.18 17.4749 104.144 17.0234 104.05 16.5602C103.78 15.5065 103.273 14.6149 102.485 13.8275L102.437 13.7811C102.061 13.4222 101.625 13.0864 101.202 12.8317C100.919 12.6928 100.637 12.5538 100.307 12.4382C99.5653 12.2296 98.859 12.1139 98.2235 12.1139C97.6232 12.1372 96.9758 12.2412 96.3166 12.4382C95.9988 12.5541 95.7044 12.693 95.4337 12.8317C94.9863 13.0864 94.5862 13.4222 94.186 13.7811L94.1508 13.8275C93.374 14.6149 92.856 15.5063 92.5853 16.5602C92.503 17.0234 92.4322 17.4749 92.4322 17.9034C92.4322 18.3319 92.503 18.7602 92.5853 19.2233C92.856 20.2886 93.374 21.2034 94.1508 21.9791L94.186 22.0138C94.5862 22.396 94.9865 22.7202 95.4337 22.9748C95.7044 23.1021 95.9988 23.2527 96.3166 23.3684C96.9758 23.5537 97.6232 23.6694 98.2235 23.7043C98.8588 23.7043 99.5651 23.5653 100.307 23.3684Z" fill="#353757"/>
<path d="M108.637 25.8151C108.567 25.5957 108.532 25.4339 108.532 25.2838V10.4957C108.532 10.0444 108.697 9.68569 109.026 9.40778C109.191 9.23415 109.403 9.10683 109.673 8.99115C109.744 8.96811 109.791 8.95647 109.85 8.94484C109.968 8.92179 110.05 8.91016 110.132 8.91016H110.25C110.767 8.94484 111.191 9.15315 111.473 9.58119C111.697 9.7895 111.897 10.0325 112.12 10.3335L121.708 21.0031H121.754V10.5361C121.754 9.85659 122.151 9.36147 122.922 9.05071C123.004 9.01625 123.155 8.98157 123.377 8.97016C124.055 8.97016 124.592 9.36169 124.931 10.1562C124.942 10.2023 124.977 10.2828 124.977 10.3289L125.001 10.5822V25.2867C125.001 25.989 124.58 26.5188 123.798 26.8182C123.763 26.8296 123.728 26.8526 123.693 26.8526L123.424 26.8871C123.389 26.8871 123.354 26.8985 123.331 26.8985C122.758 26.864 122.209 26.4725 121.625 25.7008C115.458 18.8269 112.233 15.2112 111.93 14.8427H111.779V25.0989C111.779 26.0461 111.36 26.6352 110.534 26.8661C110.429 26.9008 110.313 26.9354 110.15 26.9354H110.115C109.451 26.9354 108.963 26.5542 108.637 25.8151Z" fill="#353757"/>
<path d="M127.867 26.5085C127.658 26.324 127.483 26.0588 127.367 25.736C127.355 25.6782 127.355 25.6438 127.355 25.5975C127.344 25.4823 127.32 25.3554 127.32 25.286V10.485C127.32 10.1375 127.438 9.81346 127.663 9.54697C127.84 9.31538 128.136 9.11847 128.49 8.99115C128.537 8.95647 128.573 8.95647 128.62 8.94484C128.738 8.92156 128.845 8.91016 128.927 8.91016H138.038C138.877 8.91016 139.432 9.25742 139.727 9.95219L139.775 10.1028C139.787 10.1375 139.787 10.1607 139.787 10.1954C139.822 10.2997 139.846 10.3923 139.846 10.485V10.5374C139.846 10.5374 139.472 11.4754 139.001 11.7764C138.919 11.846 138.824 11.927 138.707 11.8765H138.671C138.612 11.9963 138.565 12.0196 138.495 12.0426L138.401 12.0773L138.013 12.1045H130.568V16.2114H135.46C136.105 16.2114 136.572 16.5423 136.895 17.1355C136.943 17.2496 136.979 17.3409 137.015 17.4549C137.027 17.4778 137.027 17.512 137.05 17.5348C137.05 17.6261 137.062 17.7059 137.062 17.7972V17.9361C137.062 17.9361 136.635 18.9668 136.059 19.2794L135.835 19.3953C135.788 19.4299 135.741 19.4416 135.706 19.406H135.635C135.541 19.4763 135.435 19.4879 135.352 19.6341H130.568V23.7411H137.877C138.785 23.7411 139.321 24.1331 139.588 24.952C139.6 25.0097 139.6 25.0442 139.6 25.0903C139.623 25.2055 139.635 25.2748 139.658 25.3209C139.658 25.9666 139.309 26.4627 138.587 26.8086C138.354 26.9008 138.122 26.9354 137.877 26.9354H128.903C128.484 26.9352 128.158 26.8083 127.867 26.5085Z" fill="#353757"/>
<path d="M146.655 25.8278L146.608 25.6772C146.597 25.5266 146.573 25.3993 146.573 25.295V18.5564L141.86 12.188C141.287 11.4702 141.006 10.9491 141.006 10.5439V10.4727C141.006 10.4038 141.03 10.3232 141.03 10.2083L141.053 10.0704C141.38 9.28897 141.871 8.88672 142.595 8.88672C143.028 8.88672 143.413 9.05898 143.775 9.40374C144.021 9.67959 145.504 11.6676 148.203 15.3105C150.902 11.6676 152.385 9.67959 152.619 9.40374C152.981 9.05898 153.366 8.88672 153.822 8.88672C154.535 8.88672 155.025 9.28897 155.341 10.0704C155.352 10.1279 155.352 10.151 155.376 10.2083C155.376 10.3002 155.387 10.4036 155.387 10.4727V10.5437C155.387 10.9489 155.107 11.47 154.557 12.1878L149.82 18.5561V25.295C149.82 25.3993 149.809 25.5266 149.785 25.6772C149.774 25.7465 149.75 25.7814 149.739 25.8278C149.399 26.5805 148.897 26.9394 148.195 26.9394H148.199C147.497 26.9394 146.994 26.5805 146.655 25.8278Z" fill="#353757"/>
<path d="M24.0812 13.0625C24.4086 13.0625 24.6741 13.3003 24.6741 13.5937V15.7431C24.6741 17.1679 23.7759 17.9289 22.3533 17.9701C20.9377 18.0126 19.7393 17.294 19.7393 15.7431V13.5911C19.7393 13.3038 19.9992 13.071 20.3198 13.071C20.6404 13.071 20.9004 13.3038 20.9004 13.5911V15.7431C20.9004 16.6004 21.426 17.0465 22.285 17.0104C23.0823 16.9629 23.3678 16.4618 23.3678 15.7431V13.5874C23.3678 13.2975 23.6302 13.0625 23.9537 13.0625H24.0812Z" fill="#353757"/>
<path d="M14.8033 17.5522C14.8272 17.278 14.5529 17.0522 14.2364 17.0522H13.6641H12.7145L14.4332 15.1506C14.7307 14.8224 14.7062 14.3265 14.5294 13.9636C14.3768 13.6213 14.0631 13.3491 13.6694 13.1953C13.4773 13.1219 13.2713 13.0818 13.0636 13.0754C12.9703 13.0671 12.8665 13.0625 12.7573 13.0625C12.6276 13.0625 12.5057 13.0689 12.3998 13.0802C12.2183 13.094 12.0386 13.1335 11.869 13.1989C11.7275 13.2597 11.4018 13.4271 11.1294 13.7724C11.0079 13.9481 10.929 14.1498 10.9101 14.3654C10.9072 14.3863 10.9057 14.4076 10.9057 14.4291C10.9057 14.4333 10.906 14.4374 10.906 14.4415C10.9058 14.4498 10.9055 14.458 10.9055 14.4664C10.9055 14.5103 10.9157 14.5522 10.9338 14.5909C11.0131 14.8128 11.2513 14.9739 11.5328 14.9739C11.7932 14.9739 12.0167 14.8359 12.1113 14.6395C12.1463 14.5886 12.1664 14.5296 12.1664 14.4664C12.1664 14.3988 12.1783 14.3328 12.2 14.2699C12.2466 14.0227 12.4716 13.8279 12.7566 13.7885C12.762 13.787 12.7675 13.7853 12.7729 13.784C12.7752 13.7845 12.7773 13.7852 12.7794 13.7858C12.9113 13.7716 13.0535 13.7866 13.2088 13.8795C13.4179 14.0046 13.5587 14.2106 13.5308 14.4299C13.5124 14.575 13.4327 14.7041 13.3147 14.7973C13.3127 14.8011 13.3111 14.8049 13.3091 14.8087L10.9615 17.3992C10.8959 17.485 10.8552 17.5415 10.857 17.6432C10.8603 17.8276 11.0436 17.9719 11.256 17.9719H11.6996H13.799H14.2558C14.273 17.9719 14.29 17.9707 14.3065 17.9689C14.5753 17.9589 14.7832 17.7827 14.8033 17.5522Z" fill="#353757"/>
<path d="M24.4363 21.3164C24.2155 21.2725 23.9976 21.2247 23.7849 21.1746L23.564 21.121L23.3387 21.055C23.1913 21.0105 23.0439 20.9615 22.8995 20.9141L22.755 21.029C22.7095 21.0689 22.6617 21.1057 22.612 21.1395L22.3159 21.3463C22.5412 21.4399 22.7739 21.5365 23.0094 21.6161C23.2405 21.6913 23.4833 21.7617 23.726 21.8276L23.4342 22.0623C23.3359 22.1374 23.2449 22.2248 23.1424 22.2923L22.8433 22.5084L22.696 22.6143L22.6569 22.6403L22.6396 22.6542L22.6122 22.6725C22.5899 22.6891 22.5662 22.7035 22.5413 22.7155L21.9794 23.065C21.3538 23.4341 20.6853 23.7131 19.9921 23.8977C18.6029 24.2524 17.2141 24.0555 16.6422 23.9442C15.808 23.746 15.0119 23.3961 14.2914 22.9063C13.8934 22.6393 13.5159 22.3394 13.1623 22.0093C12.9823 21.8447 12.8117 21.6687 12.6428 21.4842C12.559 21.3936 12.4768 21.2982 12.3978 21.2028C12.397 21.202 12.3963 21.2009 12.3955 21.2001C12.2751 21.0514 12.0596 21.0463 11.9341 21.1901L11.9257 21.1997C11.8198 21.321 11.8153 21.5075 11.916 21.6337C11.9437 21.6687 11.9718 21.7033 12.0007 21.7394C12.0875 21.8447 12.1744 21.9436 12.2644 22.0439C12.4459 22.2381 12.6274 22.4274 12.8197 22.6035C13.1965 22.9544 13.5989 23.2731 14.0234 23.5564C14.6848 24.0024 15.404 24.3403 16.1566 24.5642L16.154 24.5724C16.3002 24.6131 16.4448 24.6484 16.5872 24.6787C16.6282 24.6883 16.6687 24.6996 16.7098 24.7085C16.7704 24.7233 16.8277 24.7364 16.8882 24.7464L17.0649 24.771C17.1827 24.7842 17.3022 24.8089 17.4202 24.8171L17.7652 24.8411C17.7899 24.8428 17.827 24.8399 17.8664 24.8353C19.303 24.8855 20.3126 24.5075 20.3641 24.4876C21.0014 24.2944 21.6167 24.0248 22.1976 23.6828L22.787 23.3165C22.8115 23.2997 22.8361 23.2858 22.8606 23.2719L22.8895 23.2505L22.9068 23.2366L22.9458 23.2106L23.1004 23.1003L23.4124 22.8749C23.5178 22.8044 23.6176 22.7155 23.7187 22.6358L24.0207 22.3937C23.9688 22.7033 23.9081 23.016 23.8459 23.335C23.778 23.6477 23.6971 23.9573 23.6177 24.2762L23.9789 24.0156C24.0382 23.971 24.0988 23.9267 24.1552 23.8775L24.2441 23.8046C24.2977 23.7606 24.3351 23.6979 24.3497 23.6278C24.3831 23.4653 24.415 23.3033 24.447 23.1402L24.5033 22.8443L24.548 22.5439C24.5937 22.2453 24.6344 21.9487 24.6713 21.6562C24.6915 21.4943 24.5872 21.3463 24.4363 21.3164Z" fill="#E95A27"/>
<defs>
<linearGradient id="paint0_linear" x1="19.7261" y1="18.4815" x2="33.3796" y2="24.4035" gradientUnits="userSpaceOnUse">
<stop offset="0.2482" stop-opacity="0.3"/>
<stop offset="1" stop-opacity="0"/>
</linearGradient>
</defs>
</svg>
