<?xml version="1.0" encoding="utf-8"?>
<!-- Generator: Adobe Illustrator 24.0.1, SVG Export Plug-In . SVG Version: 6.00 Build 0)  -->
<svg version="1.1" id="Layer_1" xmlns="http://www.w3.org/2000/svg" xmlns:xlink="http://www.w3.org/1999/xlink" x="0px" y="0px"
	 viewBox="0 0 110 36" style="enable-background:new 0 0 110 36;" xml:space="preserve">
<style type="text/css">
	.st0{fill:none;}
	.st1{fill:#171717;fill-opacity:0;}
	.st2{fill-rule:evenodd;clip-rule:evenodd;fill:#E85A26;}
	.st3{fill:#FFFFFF;}
	.st4{fill:#E95927;}
	.st5{fill:#343657;}
	.st6{fill-rule:evenodd;clip-rule:evenodd;fill:#E95927;}
	.st7{fill:#E85A26;}
</style>
<rect class="st0" width="110" height="36"/>
<rect class="st1" width="110" height="36"/>
<path class="st2" d="M74.9,11.9c-3.4,0-6.1,2.7-6.1,6.1s2.7,6.1,6.1,6.1c3.4,0,6.1-2.7,6.1-6.1C81,14.6,78.3,11.9,74.9,11.9
	L74.9,11.9L74.9,11.9L74.9,11.9L74.9,11.9L74.9,11.9z M74.9,22c-2.2,0-4-1.8-4-4c0-2.2,1.8-4,4-4c2.2,0,4,1.8,4,4
	C78.9,20.2,77.1,22,74.9,22L74.9,22L74.9,22z"/>
<circle vector-effect="non-scaling-stroke" class="st3" cx="15.8" cy="18" r="14.5"/>
<path class="st4" d="M8.5,22.7c0.1,0.1,0.2,0.2,0.3,0.4c0.1,0.1,0.2,0.2,0.3,0.3c0.2,0.2,0.4,0.4,0.7,0.6c0.5,0.4,0.9,0.8,1.4,1.1
	c1,0.6,2.1,1.1,3.2,1.3c0.1,0,0.1,0,0.2,0l0.2,0c0.1,0,0.3,0,0.4,0.1l0.4,0c0.1,0,0.1,0,0.2,0H16l0.4,0l0.4,0c0.3,0,0.6-0.1,0.8-0.1
	c1.1-0.2,2.2-0.6,3.2-1.2l0.8-0.4c0,0,0.1,0,0.1-0.1l0,0l0,0l0,0l0.2-0.1l0.4-0.3c0.1-0.1,0.3-0.2,0.4-0.3l0.4-0.3
	c-0.1,0.4-0.1,0.8-0.2,1.1c-0.1,0.4-0.2,0.8-0.3,1.1l0.5-0.3c0.1-0.1,0.2-0.1,0.2-0.2l0.2-0.2c0.1-0.2,0.1-0.5,0.2-0.7l0.1-0.4
	l0.1-0.4c0.1-0.5,0.1-1,0.2-1.4c-0.4-0.1-0.8-0.1-1.2-0.2l-0.3-0.1l-0.3-0.1C22.2,22,22,22,21.8,21.9L21.7,22
	c-0.1,0-0.1,0.1-0.2,0.1l-0.4,0.3c0.3,0.1,0.6,0.2,0.9,0.3c0.3,0.1,0.6,0.2,0.9,0.3l-0.4,0.3c-0.1,0.1-0.2,0.2-0.4,0.3l-0.4,0.3
	l-0.2,0.1l0,0l0,0l0,0c0,0-0.1,0-0.1,0.1l-0.7,0.4c-1,0.5-2,0.9-3,1.1c-0.3,0-0.5,0.1-0.8,0.1l-0.4,0l-0.4,0h-0.2
	c-0.1,0-0.1,0-0.2,0l-0.4,0c-0.1,0-0.3,0-0.4-0.1l-0.2,0c-0.1,0-0.1,0-0.2,0c-1-0.2-2.1-0.6-3-1.2c-0.5-0.3-0.9-0.6-1.3-1
	c-0.2-0.2-0.4-0.4-0.6-0.6c-0.1-0.1-0.2-0.2-0.3-0.3C9.1,22.4,9,22.3,9,22.2L8.5,22.7z"/>
<path class="st5" d="M24.4,11.4v4c0,2.1-1.2,3.2-3,3.3c-1.8,0.1-3.4-1-3.4-3.3v-4h1.6v4c0,1.3,0.7,1.9,1.9,1.9
	c1.1-0.1,1.5-0.8,1.5-1.9v-4H24.4L24.4,11.4z"/>
<path class="st5" d="M8.1,12.9H7.2c0.1-1.1,0.7-1.6,1.6-1.6h1.6c0.4,0,0.8,0.2,1.1,0.5c0.3,0.3,0.5,0.7,0.5,1.2v0.4
	c0,0.6-0.5,1.3-1.6,2.2l-0.1,0.1c-1.1,0.9-1.6,1.6-1.6,2.1v0.1h3.3v0.8H7.2v-0.8c0-0.6,0.5-1.3,1.6-2.2l0.1-0.1
	c1.1-0.9,1.6-1.6,1.6-2.2v-0.4c0-0.2-0.1-0.4-0.2-0.6c-0.2-0.2-0.4-0.2-0.6-0.2H8.9C8.4,12.1,8.1,12.4,8.1,12.9z"/>
<path class="st6" d="M15.8,3.3C7.7,3.3,1.1,9.9,1.1,18s6.6,14.8,14.8,14.8S30.6,26.1,30.6,18C30.6,9.8,24,3.3,15.8,3.3L15.8,3.3
	L15.8,3.3z M15.8,31C8.7,31,2.9,25.2,2.9,18S8.7,5.1,15.8,5.1S28.7,10.9,28.7,18S22.9,31,15.8,31L15.8,31z"/>
<path class="st7" d="M45.6,12.8h2.6v6.5l0,0c0,0.7,0.2,1.3,0.6,1.7l0,0l0,0c0.4,0.4,0.9,0.5,1.5,0.5l0,0l0,0c0.6,0,1.1-0.2,1.5-0.6
	l0,0l0,0c0.4-0.4,0.6-0.9,0.6-1.6l0,0v-6.5h2.6v6.6l0,0c0,1.3-0.4,2.3-1.3,3.1l0,0l0,0c-0.8,0.7-2,1.1-3.4,1.1l0,0l0,0
	c-1.4,0-2.5-0.4-3.3-1.1l0,0l0,0c-0.8-0.7-1.3-1.8-1.3-3.1l0,0V12.8L45.6,12.8z"/>
<path class="st7" d="M43.7,15.4L43.7,15.4L43.7,15.4c0,0.8-0.2,1.5-0.6,2.2l0,0l0,0c-0.4,0.7-1,1.4-1.9,2.2l0,0l-1,0.9h3.7l0.3,2.4
	h-8.3v-2.1l3.4-3l0,0c0.6-0.5,1.1-1,1.3-1.4l0,0l0,0c0.2-0.4,0.4-0.7,0.4-1l0,0l0,0c0-0.3-0.1-0.5-0.4-0.7l0,0l0,0
	c-0.2-0.2-0.5-0.3-0.9-0.3l0,0l0,0c-0.5,0-0.9,0.1-1.4,0.4l0,0l0,0c-0.5,0.3-0.9,0.5-1.1,0.7l0,0l-1.3-2.1l0,0
	c0.4-0.3,0.9-0.7,1.6-1l0,0l0,0c0.7-0.4,1.5-0.5,2.4-0.5l0,0l0,0c1.5,0,2.6,0.4,3.1,1.1l0,0l0,0C43.4,13.9,43.7,14.6,43.7,15.4z"/>
<path class="st7" d="M63.3,20L63.3,20l-2-2.5v5.6h-2.6V12.5h1.7l3.3,4.3l0,0c0.5-0.7,1-1.4,1.5-2.2l0,0l0,0c0.5-0.7,1-1.5,1.5-2.2
	l0,0h1.7v10.6h-2.6v-5.5l0,0c-0.3,0.4-0.5,0.7-0.8,1.1l0,0l0,0c-0.3,0.4-0.5,0.7-0.8,1.1l0,0l0,0c-0.2,0-0.3,0-0.5,0.1l0,0l0,0
	C63.6,20,63.5,20,63.3,20z"/>
<path class="st7" d="M88.7,12.8h2.6v10.6h-2.4l0,0c-0.7-1-1.5-2-2.2-3.1l0,0l0,0c-0.7-1-1.5-2.1-2.2-3.1l0,0v6.2h-2.6V12.8h2.4
	l4.4,6.3V12.8L88.7,12.8z M99.5,23.4L99.5,23.4h-7.7V12.8h6.8l0.3,2h-4.5v2.2h3.1l0.3,2h-3.4v2.3h4.8l0,0c0.1,0.3,0.1,0.7,0.1,1l0,0
	l0,0C99.4,22.8,99.5,23.1,99.5,23.4z M105.3,23.4h-2.6v-4.2l-3.6-6.2l2.7-0.3l2.2,4l2.3-4h2.7l-3.7,6.5V23.4L105.3,23.4z"/>
</svg>
