<?xml version="1.0" encoding="utf-8"?>
<!-- Generator: Adobe Illustrator 24.0.1, SVG Export Plug-In . SVG Version: 6.00 Build 0)  -->
<svg version="1.1" id="Layer_1" xmlns="http://www.w3.org/2000/svg" xmlns:xlink="http://www.w3.org/1999/xlink" x="0px" y="0px"
	 viewBox="0 0 369 78" style="enable-background:new 0 0 369 78;" xml:space="preserve">
<style type="text/css">
	.st0{fill:#FFFFFF;}
	.st1{fill-rule:evenodd;clip-rule:evenodd;fill:#E95A27;}
	.st2{fill:#353757;}
	.st3{fill:#E95A27;}
</style>
<path class="st0" d="M38.7,72.6c18.7,0,33.9-15.2,33.9-33.9S57.4,4.8,38.7,4.8S4.8,20,4.8,38.7S20,72.6,38.7,72.6z"/>
<path class="st1" d="M38.7,0.3C17.4,0.3,0.2,17.5,0.2,38.8s17.3,38.5,38.5,38.5C60,77.3,77.2,60,77.2,38.8
	C77.2,17.5,59.9,0.3,38.7,0.3L38.7,0.3z M38.7,72.6C20,72.6,4.9,57.5,4.9,38.9S20,5.1,38.7,5.1s33.8,15.1,33.8,33.8
	C72.4,57.5,57.3,72.6,38.7,72.6L38.7,72.6z"/>
<path class="st0" d="M121.1,54.3c-2-2.9-3-6.2-3-9.8L118,20.3c0-1.8,0.9-3.1,2.9-3.9c0.2-0.1,0.6-0.1,1.1-0.2c1.8,0,3,1,3.8,3
	c0.1,0.1,0.1,0.2,0.1,0.3c0,0.2,0.1,0.5,0.1,0.7l0.1,23.3c0,3.4,0.8,5.7,2.4,7c1.9,1.7,4.2,2.6,7,2.6c3.6,0,6.4-1.4,8.2-4.3
	c0.7-1.2,1-2.5,1-3.8V21.2c0-2.5,1-4.1,3-4.9c0.1-0.1,0.3-0.1,0.5-0.1h0.5h0.2c1.7,0,3,1,3.7,3c0.1,0.1,0.1,0.1,0.1,0.2
	c0.1,0.3,0.1,0.7,0.1,1.2v23.2c0,8.1-3.8,13.6-11.4,16.4c-2.2,0.6-4.2,0.9-5.8,0.9h-0.1C129.5,61.1,124.7,58.8,121.1,54.3z"/>
<path class="st0" d="M115.2,58.3c0,1.7-1.3,3.1-3.1,3.1H91.8c-1.7,0-3.1-1.3-3.1-3.1c0-0.9,0.3-1.4,0.8-2.2l18.6-23.6
	c2.7-5.9-3.6-12-9.5-8.7c-1.9,1.1-3.2,3.3-3.2,5.5c0,1.7-1.4,3.1-3.2,3.1c-1.7,0-3.2-1.4-3.2-3.1c0-3.4,1.5-6.6,3.7-8.8v-0.1
	c4-4,9.8-4.8,14.6-2.7c3.1,1.4,5.6,3.9,6.8,7c1.4,3.3,1.6,7.8-0.8,10.8L98.1,55.2h14C113.8,55.2,115.2,56.6,115.2,58.3z"/>
<path class="st0" d="M196.1,58.4c-0.2-0.5-0.2-1-0.2-1.4V32.6c-5.3,7.1-8.7,11.6-10.2,13.6c-0.5,0.5-1.4,0.9-2.7,1.1
	c-1.7,0-3.3-1.2-4.7-3.7l-7.9-10.4h-0.1v23.9c0,1.8-1,3.1-2.9,3.8c-0.4,0.2-0.8,0.3-1.2,0.3H166c-1.9,0-3.1-1-4-3.1l-0.1-0.3
	c0-0.3-0.1-0.5-0.1-0.7V20.5c0-2,1-3.3,3.1-4.1c0.1,0,0.2,0,0.3,0c0.3,0,0.5,0,0.7,0c1.8,0,3.4,1.2,4.8,3.7l12.1,16.1
	c8.8-11.7,13.6-18,14.2-18.8c0-0.1,0.1-0.1,0.1-0.1c0.8-0.6,1.7-0.8,2.5-0.8h0.1c1.8,0,3.1,1,3.9,2.9c0,0.1,0,0.2,0.1,0.3
	c0.1,0.4,0.1,0.9,0.1,1.4v35.7c0,2.3-1,3.8-3.1,4.4c-0.2,0.1-0.5,0.2-1,0.2l0,0C198.1,61.2,196.9,60.2,196.1,58.4z"/>
<path class="st0" d="M225.9,60.9c-1.5-0.2-2.9-0.6-4.3-1c-1.2-0.4-2.3-0.9-3.4-1.5c-0.9-0.5-1.7-1-2.6-1.7c-1-0.6-1.8-1.4-2.7-2.2
	c-1.8-1.8-3.2-3.9-4.3-6.3c-0.1-0.3-0.1-0.4-0.1-0.4v-0.1c-1-2.5-1.7-5.3-1.9-8.3c0-0.3,0-0.5,0.1-0.7c-0.1-0.3-0.1-0.5-0.1-0.7
	c0.2-3.1,0.9-5.8,1.9-8.3v-0.1c1.1-2.6,2.6-4.8,4.4-6.6c0.8-0.9,1.7-1.6,2.7-2.2c0.8-0.7,1.7-1.2,2.6-1.6c1.1-0.6,2.2-1.1,3.4-1.5
	c1.4-0.5,2.8-0.8,4.3-1.1c1-0.1,2.1-0.1,3.1-0.1s2.1,0,3.1,0.1c1.6,0.2,3.1,0.6,4.5,1.2c0.9,0.3,1.7,0.6,2.5,1.1
	c1.2,0.5,2.3,1.2,3.3,2c0.9,0.7,1.8,1.4,2.7,2.2c1.8,1.8,3.2,3.9,4.3,6.3c0.1,0.3,0.1,0.3,0.1,0.4v0.1c1.1,2.5,1.7,5.3,1.9,8.3v0.7
	v0.7c-0.2,3-0.8,5.7-1.8,8.2c-0.1,0-0.1,0.1-0.1,0.1v0.2c-1.1,2.5-2.6,4.7-4.5,6.6c-0.9,0.8-1.7,1.6-2.7,2.2
	c-0.9,0.7-1.7,1.2-2.6,1.7c-1.1,0.6-2.2,1.1-3.4,1.5c-1.4,0.5-2.8,0.8-4.3,1c-1,0.1-2,0.1-3.1,0.1C228,61.1,227,61.1,225.9,60.9z
	 M233.9,52.3c0.8-0.3,1.5-0.7,2.2-1c1-0.6,2-1.4,2.9-2.3c0.1-0.1,0.2-0.2,0.2-0.2h0.1c1.9-1.9,3.2-4.2,3.8-6.9
	c0.2-1.2,0.3-2.2,0.3-3.3s-0.1-2.2-0.3-3.3c-0.7-2.6-1.9-4.8-3.8-6.8l-0.1-0.1c-0.9-0.9-2-1.7-3-2.4c-0.7-0.3-1.4-0.7-2.2-1
	c-1.8-0.5-3.5-0.8-5.1-0.8c-1.5,0.1-3.1,0.3-4.7,0.8c-0.8,0.3-1.5,0.6-2.2,1c-1.1,0.6-2.1,1.5-3.1,2.4l-0.1,0.1
	c-1.9,2-3.2,4.2-3.8,6.8c-0.2,1.2-0.4,2.3-0.4,3.3s0.2,2.1,0.4,3.3c0.7,2.6,1.9,4.9,3.8,6.9l0.1,0.1c1,1,2,1.8,3.1,2.4
	c0.7,0.3,1.4,0.7,2.2,1c1.6,0.5,3.2,0.7,4.7,0.8C230.4,53.2,232.1,52.8,233.9,52.3z"/>
<path class="st0" d="M254.4,58.3c-0.2-0.5-0.3-1-0.3-1.3V20.3c0-1.1,0.4-2,1.2-2.7c0.4-0.4,0.9-0.7,1.6-1c0.2-0.1,0.3-0.1,0.4-0.1
	c0.3-0.1,0.5-0.1,0.7-0.1h0.3c1.3,0.1,2.3,0.6,3,1.7c0.5,0.5,1,1.1,1.6,1.9l23.5,26.5h0.1V20.2c0-1.7,1-2.9,2.9-3.7
	c0.2-0.1,0.6-0.2,1.1-0.2c1.7,0,3,1,3.8,3c0,0.1,0.1,0.3,0.1,0.4l0.1,0.6v36.8c0,1.8-1,3.1-3,3.8c-0.1,0-0.2,0.1-0.3,0.1l-0.7,0.1
	c-0.1,0-0.2,0-0.2,0c-1.4-0.1-2.8-1.1-4.2-3C271,41,263.1,31.9,262.3,31h-0.1v25.6c0,2.4-1,3.8-3.1,4.4c-0.3,0.1-0.5,0.2-1,0.2H258
	C256.5,61.1,255.2,60.2,254.4,58.3z"/>
<path class="st0" d="M301.1,60.1c-0.5-0.5-1-1.1-1.2-1.9c0-0.1,0-0.2,0-0.3c0-0.3-0.1-0.6-0.1-0.8V20.2c0-0.9,0.3-1.7,0.8-2.3
	c0.4-0.6,1.2-1.1,2-1.4c0.1-0.1,0.2-0.1,0.3-0.1c0.3-0.1,0.5-0.1,0.7-0.1h22.2c2,0,3.4,0.9,4.1,2.6l0.1,0.4c0,0.1,0,0.1,0,0.2
	c0.1,0.3,0.1,0.5,0.1,0.7v0.2c0,1.3-0.6,2.3-1.8,3.1c-0.2,0.2-0.4,0.4-0.7,0.5h-0.1c-0.1,0.1-0.3,0.1-0.4,0.2l-0.2,0.1l-1,0.1h-18.3
	v10.4h11.8c1.6,0,2.7,0.8,3.5,2.3c0.1,0.3,0.2,0.5,0.3,0.8c0,0.1,0,0.1,0.1,0.2c0,0.2,0,0.4,0,0.7v0.1c0,1.4-0.7,2.6-2.1,3.3
	l-0.5,0.3c-0.1,0.1-0.2,0.1-0.3,0.1h-0.2c-0.2,0.1-0.5,0.1-0.7,0.1h-11.8v10.5h18.1c2.2,0,3.6,1,4.2,3c0,0.1,0,0.2,0,0.3
	c0.1,0.3,0.1,0.5,0.1,0.6c0,1.6-0.9,2.8-2.6,3.7c-0.6,0.2-1.2,0.3-1.8,0.3h-22.2C302.7,61.1,301.9,60.8,301.1,60.1z"/>
<path class="st0" d="M347,58.4l-0.1-0.4c0-0.4-0.1-0.7-0.1-1V40.3l-11.6-15.8c-1.4-1.8-2.1-3.1-2.1-4.1v-0.1c0-0.2,0.1-0.4,0.1-0.7
	l0.1-0.3c0.8-2,2-3,3.8-3c1.1,0,2,0.4,2.9,1.3c0.6,0.7,4.3,5.7,10.9,14.8c6.6-9.1,10.3-14.1,10.9-14.8c0.9-0.9,1.8-1.3,3-1.3
	c1.8,0,3,1,3.7,3c0,0.1,0,0.2,0.1,0.3c0,0.2,0,0.5,0,0.7v0.1c0,1-0.7,2.3-2,4.1l-11.7,15.8v16.8c0,0.3,0,0.6-0.1,1
	c0,0.2-0.1,0.3-0.1,0.4c-0.8,1.9-2.1,2.8-3.8,2.8l0,0C349.1,61.1,347.8,60.2,347,58.4z"/>
<path class="st2" d="M59.1,21.5c1.1,0,2,0.9,2,2v8.3c0,5.5-3.1,8.4-7.9,8.6c-4.8,0.2-8.9-2.6-8.9-8.6v-8.3c0-1.1,0.9-2,2-2
	s2,0.9,2,2v8.3c0,3.3,1.8,5,4.9,4.9c2.8-0.2,3.8-2.1,3.8-4.9v-8.3C57.1,22.4,58,21.5,59.1,21.5L59.1,21.5L59.1,21.5z"/>
<path class="st2" d="M27.9,36.8h-2.1h-3.2l5.9-7.5c1-1.3,0.9-3.2,0.3-4.7c-0.5-1.3-1.6-2.4-2.9-3c-0.7-0.3-1.4-0.4-2.1-0.5
	c-0.3,0-0.7-0.1-1-0.1c-0.4,0-0.9,0-1.2,0.1c-0.6,0.1-1.2,0.2-1.8,0.5c-0.5,0.2-1.6,0.9-2.5,2.3c-0.4,0.7-0.7,1.5-0.8,2.3
	c0,0.1,0,0.2,0,0.3l0,0v0.1c0,0.2,0,0.3,0.1,0.5c0.3,0.9,1.1,1.5,2,1.5s1.7-0.5,2-1.3c0.1-0.2,0.2-0.4,0.2-0.7c0-0.3,0-0.5,0.1-0.8
	c0.2-1,0.9-1.7,1.9-1.9c0,0,0,0,0.1,0l0,0c0.1,0,0.2,0,0.3,0c1.3,0,2.3,1,2.3,2.3c0,0.7-0.3,1.3-0.8,1.7l0,0l-8,10.2
	c-0.2,0.3-0.4,0.6-0.4,0.9c0,0.7,0.6,1.3,1.3,1.3h1.6h7.2H28c0.1,0,0.1,0,0.2,0c1,0,1.7-0.8,1.7-1.8C29.7,37.6,28.9,36.8,27.9,36.8z
	"/>
<path class="st3" d="M20,50.6c-0.3,0.4-0.3,0.9,0,1.3c0.1,0.1,0.2,0.2,0.3,0.3c0.3,0.3,0.5,0.6,0.8,0.9c0.6,0.6,1.1,1.1,1.7,1.6
	c1.2,1,2.4,2,3.7,2.8c2.6,1.6,5.4,2.8,8.3,3.4c0.2,0,0.4,0.1,0.6,0.1l0.6,0c0.4,0,0.7,0.1,1.1,0.1l1.1,0.1c0.3,0,0.7,0,0.9,0h0.2
	h1.1h0.1l1.1-0.1c0.7-0.1,1.5-0.2,2.2-0.3c2.9-0.6,5.8-1.6,8.4-3.1l2-1.2c0.1-0.1,0.2-0.1,0.2-0.1l0.1-0.1h0.1l0.1-0.1l0.5-0.3
	l1-0.7c0.4-0.2,0.7-0.5,1-0.8l1-0.8c-0.2,1-0.4,2-0.6,3c-0.2,1-0.5,2-0.8,3l1.2-0.8c0.2-0.1,0.4-0.3,0.6-0.4l0.3-0.2
	c0.2-0.1,0.3-0.3,0.4-0.6c0.1-0.5,0.2-1,0.3-1.5l0.2-0.9l0.1-0.9c0.2-0.9,0.3-1.9,0.4-2.8c0.1-0.5-0.3-1-0.8-1.1
	c-0.7-0.1-1.5-0.3-2.2-0.4l-0.7-0.2l-0.8-0.2c-0.5-0.1-1-0.3-1.5-0.4l-0.5,0.4c-0.2,0.1-0.3,0.2-0.5,0.3l-1,0.7
	c0.8,0.3,1.5,0.6,2.3,0.8s1.6,0.5,2.4,0.7l-1,0.7c-0.3,0.2-0.6,0.5-1,0.7l-1,0.7l-0.5,0.3l-0.1,0.1h-0.1l-0.1,0.1
	c-0.1,0.1-0.2,0.1-0.2,0.1l-1.9,1.1c-2.5,1.4-5.2,2.4-7.9,2.9c-0.7,0.1-1.4,0.2-2.1,0.3l-1,0.1H40h-1h-0.1c-0.3,0-0.7,0-0.9,0
	l-1-0.1c-0.3,0-0.7-0.1-1-0.1l-0.5-0.1c-0.2,0-0.3-0.1-0.5-0.1c-2.8-0.6-5.4-1.6-7.8-3.1c-1.2-0.8-2.4-1.7-3.5-2.6
	c-0.6-0.5-1.1-1-1.6-1.5c-0.3-0.3-0.5-0.5-0.8-0.8l0,0C21.1,50.1,20.4,50.1,20,50.6L20,50.6z"/>
</svg>
