<?xml version="1.0" encoding="utf-8"?>
<!-- Generator: Adobe Illustrator 24.0.1, SVG Export Plug-In . SVG Version: 6.00 Build 0)  -->
<svg version="1.1" id="Layer_1" xmlns="http://www.w3.org/2000/svg" xmlns:xlink="http://www.w3.org/1999/xlink" x="0px" y="0px"
	 viewBox="0 0 512 512" style="enable-background:new 0 0 512 512;" xml:space="preserve">
<style type="text/css">
	.st0{fill:#333566;}
</style>
<path class="st0" d="M454.4,79.2H412H170.3h-69.8H58h0c-18.5,0-35,8.9-45.4,22.8c-2.2,2.9-4.1,6-5.7,9.3c-1.2,2.5-2.2,5.1-3,7.7
	c-0.3,0.9-0.5,1.8-0.8,2.7c-0.5,1.8-0.8,3.7-1.1,5.5c-0.4,2.8-0.7,5.7-0.7,8.6v42.5V320v0v42.5c0,31.2,25.4,56.7,56.7,56.7h42.5
	h241.7H412h42.5h0c20.5,0,38.5-10.9,48.4-27.3c0.9-1.6,1.8-3.2,2.6-4.8c3.6-7.4,5.6-15.8,5.6-24.6v0V320v0V178.3v-42.5
	C511.1,104.7,485.8,79.2,454.4,79.2z M482.7,335.6v26.7h0c0,15.7-12.7,28.3-28.3,28.3h-26.9C433.3,363,455,341.2,482.7,335.6z
	 M377.9,229.2c5.1-5.1,12.2-8.2,19.9-8.2c15.5,0,28.3,12.6,28.3,28.3c0,7.8-3.2,14.8-8.2,19.9c-5.1,5.1-12.2,8.2-19.9,8.2
	c-15.5,0-28.3-12.7-28.3-28.3C369.6,241.3,372.8,234.3,377.9,229.2z M454.4,107.6c15.7,0,28.3,12.7,28.3,28.3v26.9
	c-27.7-5.7-49.5-27.5-55.2-55.2L454.4,107.6z M29.7,162.7V136h0c0-15.7,12.7-28.3,28.3-28.3h26.9C79.1,135.3,57.4,157.1,29.7,162.7z
	 M134.5,269.2c-5.1,5.1-12.2,8.2-19.9,8.2c-15.5,0-28.3-12.6-28.3-28.3c0-7.8,3.2-14.8,8.2-19.9c5.1-5.1,12.2-8.2,19.9-8.2
	c15.5,0,28.3,12.7,28.3,28.3C142.8,257,139.6,264.1,134.5,269.2z M58,390.7c-15.7,0-28.3-12.7-28.3-28.3v-26.9
	c27.7,5.7,49.5,27.5,55.2,55.2L58,390.7z M173.7,279c0.1-0.1,0.2-0.1,0.2-0.2c-0.9-5-1.6-10-2.1-15.2c-0.4-4.7-0.5-9.6-0.5-14.5
	c0-0.9,0.1-1.7,0.1-2.5c-0.1-0.1-0.2-0.1-0.2-0.2C172.2,180.3,206,136,256.1,136c42.9,0,73.9,32.5,82.5,83.3
	c-0.1,0.1-0.2,0.1-0.2,0.2c0.9,5,1.6,10,2.1,15.2c0.4,4.7,0.5,9.6,0.5,14.5c0,0.9-0.1,1.7-0.1,2.5c0.1,0.1,0.2,0.1,0.2,0.2
	c-0.9,66.1-34.8,110.4-84.9,110.4C213.3,362.3,182.3,329.8,173.7,279z"/>
</svg>
