<?xml version="1.0" encoding="utf-8"?>
<!-- Generator: Adobe Illustrator 24.0.1, SVG Export Plug-In . SVG Version: 6.00 Build 0)  -->
<svg version="1.1" id="Layer_1" xmlns="http://www.w3.org/2000/svg" xmlns:xlink="http://www.w3.org/1999/xlink" x="0px" y="0px"
	 viewBox="0 0 59 59" style="enable-background:new 0 0 59 59;" xml:space="preserve">
<style type="text/css">
	.st0{fill:#EFEFEF;}
	.st1{fill:#B84016;stroke:#B84016;stroke-width:0.3;}
	.st2{fill:#FFFFFF;}
	.st3{fill-rule:evenodd;clip-rule:evenodd;fill:#B84016;}
	.st4{fill:#B84016;}
</style>
<path class="st0" d="M29.5,0L29.5,0C45.8,0,59,13.2,59,29.5l0,0C59,45.8,45.8,59,29.5,59l0,0C13.2,59,0,45.8,0,29.5l0,0
	C0,13.2,13.2,0,29.5,0z"/>
<path class="st1" d="M18.5,29.9h24.7c1.1,0,1.9-0.8,1.9-1.9v-4.6c0-1-0.9-1.9-1.9-1.9H18.5c-1.1,0-1.9,0.8-1.9,1.9V28
	C16.6,29.1,17.5,29.9,18.5,29.9z M18.1,23.4c0-0.2,0.2-0.4,0.4-0.4h24.7c0.2,0,0.4,0.2,0.4,0.4V28c0,0.2-0.2,0.4-0.4,0.4H18.5
	c-0.2,0-0.4-0.2-0.4-0.4V23.4z"/>
<path class="st1" d="M30.9,22.8C30.9,22.8,30.9,22.8,30.9,22.8c-0.1,0-0.1,0-0.2,0c-0.4-0.1-1.5-0.3-2.6-0.7
	c-0.6-0.2-1.2-0.4-1.7-0.6c-0.5-0.2-0.9-0.5-1.2-0.7c-0.6-0.6-0.9-1.3-0.9-2.2c0-0.8,0.3-1.6,0.9-2.2c1.2-1.2,3.1-1.2,4.3,0
	c0.3,0.3,0.5,0.7,0.7,1.2c0.2,0.5,0.4,1.1,0.6,1.7c0.2-0.6,0.4-1.2,0.6-1.7c0.2-0.5,0.5-0.9,0.7-1.2L30.9,22.8z"/>
<path class="st1" d="M30.9,22.8C30.9,22.8,30.9,22.8,30.9,22.8c0.1,0,0.1,0,0.2,0l0,0l0,0c0.4-0.1,1.5-0.3,2.6-0.7
	c0.6-0.2,1.2-0.4,1.7-0.6c0.5-0.2,0.9-0.5,1.2-0.7c0.6-0.6,0.9-1.3,0.9-2.2c0-0.8-0.3-1.6-0.9-2.2c-1.2-1.2-3.1-1.2-4.3,0L30.9,22.8
	z"/>
<path class="st2" d="M29.2,18.9c0.2,0.6,0.5,1.4,0.6,2.1c-0.7-0.2-1.5-0.4-2.1-0.6c-0.4-0.1-0.7-0.3-0.9-0.4
	c-0.3-0.1-0.4-0.2-0.5-0.3c-0.3-0.3-0.5-0.7-0.5-1.1c0-0.4,0.2-0.8,0.5-1.1c0.3-0.3,0.7-0.5,1.1-0.5c0.4,0,0.8,0.2,1.1,0.5l0,0
	c0.1,0.1,0.2,0.3,0.3,0.5C29,18.2,29.1,18.6,29.2,18.9z"/>
<path class="st2" d="M35.5,19.7L35.5,19.7c-0.1,0.1-0.3,0.2-0.5,0.3c-0.3,0.1-0.6,0.3-0.9,0.4c-0.6,0.2-1.4,0.5-2.1,0.6
	c0.2-0.7,0.4-1.5,0.6-2.1c0.1-0.4,0.3-0.7,0.4-0.9c0.1-0.3,0.2-0.4,0.3-0.5c0.3-0.3,0.7-0.5,1.1-0.5c0.4,0,0.8,0.2,1.1,0.5
	c0.3,0.3,0.5,0.7,0.5,1.1C36,19,35.8,19.4,35.5,19.7z"/>
<path class="st3" d="M19.1,29.2v7.9c0,1.6,1.3,2.9,2.9,2.9h17.6c1.6,0,2.9-1.3,2.9-2.9v-7.9h-1.2v7.9c0,1-0.8,1.8-1.8,1.8H22.1
	c-1,0-1.8-0.8-1.8-1.8v-7.9H19.1z"/>
<path class="st4" d="M19.1,29.2v-0.3h-0.3v0.3H19.1z M42.6,29.2h0.3v-0.3h-0.3V29.2z M41.5,29.2v-0.3h-0.3v0.3H41.5z M20.3,29.2h0.3
	v-0.3h-0.3V29.2z M19.4,37.1v-7.9h-0.6v7.9H19.4z M22.1,39.7c-1.5,0-2.6-1.2-2.6-2.6h-0.6c0,1.8,1.5,3.2,3.2,3.2V39.7z M39.7,39.7
	H22.1v0.6h17.6V39.7z M42.3,37.1c0,1.5-1.2,2.6-2.6,2.6v0.6c1.8,0,3.2-1.5,3.2-3.2H42.3z M42.3,29.2v7.9h0.6v-7.9H42.3z M42.6,28.9
	h-1.2v0.6h1.2V28.9z M41.8,37.1v-7.9h-0.6v7.9H41.8z M39.7,39.1c1.1,0,2.1-0.9,2.1-2.1h-0.6c0,0.8-0.7,1.5-1.5,1.5V39.1z M22.1,39.1
	h17.6v-0.6H22.1V39.1z M20,37.1c0,1.1,0.9,2.1,2.1,2.1v-0.6c-0.8,0-1.5-0.7-1.5-1.5H20z M20,29.2v7.9h0.6v-7.9H20z M20.3,28.9h-1.2
	v0.6h1.2V28.9z"/>
<path class="st3" d="M27.4,29.2v5.6c0,0.2,0.1,0.4,0.3,0.5c0.2,0.1,0.4,0.1,0.6-0.1l2.6-2.1l2.6,2.1c0.1,0.1,0.2,0.1,0.4,0.1
	c0.1,0,0.2,0,0.3-0.1c0.2-0.1,0.3-0.3,0.3-0.5v-5.6h-1.2v4.3l-2-1.6c-0.2-0.2-0.5-0.2-0.7,0l-2,1.6v-4.3H27.4z"/>
</svg>
