<?xml version="1.0" encoding="utf-8"?>
<!-- Generator: Adobe Illustrator 24.0.1, SVG Export Plug-In . SVG Version: 6.00 Build 0)  -->
<svg version="1.1" id="Layer_1" xmlns="http://www.w3.org/2000/svg" xmlns:xlink="http://www.w3.org/1999/xlink" x="0px" y="0px"
	 viewBox="0 0 65 65" style="enable-background:new 0 0 65 65;" xml:space="preserve">
<style type="text/css">
	.st0{fill:#FFFFFF;}
	.st1{fill:#B84016;}
</style>
<path class="st0" d="M32.5,65C50.4,65,65,50.4,65,32.5S50.4,0,32.5,0S0,14.6,0,32.5S14.6,65,32.5,65z"/>
<path class="st1" d="M35.1,33.3c3.9,0,7.1-3.2,7.1-7.1s-3.2-7.1-7.1-7.1S28,22.3,28,26.2C27.9,30.1,31.1,33.3,35.1,33.3z M35.1,26.9
	c-1.3,0-2.4-1.1-2.4-2.4c0-1,0.7-1.9,1.6-2.2v-0.9c0-0.4,0.4-0.8,0.8-0.8c0.4,0,0.8,0.4,0.8,0.8v0.9c0.9,0.3,1.6,1.2,1.6,2.2
	c0,0.4-0.4,0.8-0.8,0.8c-0.4,0-0.8-0.4-0.8-0.8s-0.4-0.8-0.8-0.8c-0.4,0-0.8,0.4-0.8,0.8s0.4,0.8,0.8,0.8c1.3,0,2.4,1.1,2.4,2.4
	c0,1-0.7,1.9-1.6,2.2v0.9c0,0.4-0.4,0.8-0.8,0.8c-0.4,0-0.8-0.4-0.8-0.8V30c-0.9-0.3-1.6-1.2-1.6-2.2c0-0.4,0.4-0.8,0.8-0.8
	s0.8,0.4,0.8,0.8s0.4,0.8,0.8,0.8c0.4,0,0.8-0.4,0.8-0.8C35.9,27.3,35.5,26.9,35.1,26.9z M20,37.3v7.9c0,0.4,0.4,0.8,0.8,0.8H24
	c0.4,0,0.8-0.4,0.8-0.8v-8.7h-4C20.4,36.5,20,36.8,20,37.3L20,37.3z M46.8,36.7L46.8,36.7c-0.9-0.9-2.3-0.9-3.2-0.1L38.8,41
	c-0.2,0.2-0.5,0.2-0.7,0.2L31,39.5c-0.4-0.1-0.7-0.5-0.6-1c0.1-0.4,0.5-0.7,1-0.6l4.9,1.2c1.2,0.3,2.4-0.4,2.8-1.7l0,0
	c0.1-0.4-0.2-0.9-0.6-1l-6.4-1.6c-0.1,0-0.3,0-0.4,0L26.3,36v8.4L38.2,46h0.1c0.2,0,0.4-0.1,0.6-0.2l7.9-7.9
	C47.1,37.5,47.1,37,46.8,36.7z"/>
</svg>
