<svg width="58" height="59" viewBox="0 0 58 59" fill="none" xmlns="http://www.w3.org/2000/svg">
<rect y="0.660156" width="58" height="58" rx="29" fill="url(#paint0_linear)"/>
<path d="M29.5746 21.0174H36.9993L37.7273 20.4357C38.2522 20.0164 38.4472 19.3372 38.2262 18.7034C38.0035 18.0697 37.4267 17.6602 36.7572 17.6602H29.8168C29.1473 17.6602 28.5704 18.0697 28.3478 18.7034C28.1251 19.3372 28.3218 20.018 28.8466 20.4357L29.5746 21.0174Z" fill="#C7E3F7"/>
<path d="M15.533 30.6624C15.2373 30.6689 15 30.9094 15 31.2052V40.9536C15 41.2526 15.2421 41.4947 15.5411 41.4947H17.8405C18.0826 41.4947 18.2955 41.3339 18.3621 41.1015L20.759 32.6531C20.9134 32.1071 20.6209 31.5335 20.0879 31.3401C19.1064 30.9809 17.6 30.6283 15.533 30.6624Z" fill="#C7E3F7"/>
<path d="M27.6472 32.6748C27.7674 32.7447 27.8909 32.8162 28.0193 32.8893L28.1363 32.9055C29.8214 33.1477 33.1316 33.6205 33.8271 35.9573H35.1596C36.5018 35.4162 37.7579 34.9953 38.8321 34.9953C38.9214 34.9953 39.0043 35.0115 39.0921 35.0164C40.3921 34.0105 40.9982 32.3352 40.9982 30.6679C40.9982 28.0208 39.4853 24.8114 37.4508 22.6875H29.2088C27.1532 24.9089 25.832 28.245 25.832 30.6679C25.832 31.0433 25.8662 31.4187 25.9279 31.7859C26.5649 32.054 27.1028 32.3595 27.6472 32.6748Z" fill="white"/>
<path d="M38.8336 36.6189C36.6674 36.6189 32.3335 39.362 30.1674 39.362C28.0013 39.362 25.5621 37.7012 25.5621 37.7012C25.5621 37.7012 28.4806 38.2423 30.1658 38.2423C31.8509 38.2423 32.3319 37.6671 32.3319 36.8887C32.3319 34.9923 29.1111 34.6982 27.4829 34.4512C25.8839 33.5607 25.0535 32.8571 22.4048 32.6328C22.3885 32.7872 22.3641 32.9399 22.3219 33.0943L20.146 40.7643C22.6111 41.884 26.8556 43.6601 29.0835 43.6601C32.3335 43.6601 40.9997 39.3262 40.9997 38.244C40.9997 37.1601 39.9158 36.6189 38.8336 36.6189Z" fill="white"/>
<defs>
<linearGradient id="paint0_linear" x1="39.5455" y1="0.660157" x2="19.3333" y2="58.6602" gradientUnits="userSpaceOnUse">
<stop stop-color="#00C1FF"/>
<stop offset="1" stop-color="#0085FF"/>
</linearGradient>
</defs>
</svg>
