<svg id="Layer_1" data-name="Layer 1" xmlns="http://www.w3.org/2000/svg" viewBox="0 0 128 128"><defs><style>.cls-1{fill:#83c350;}.cls-2{fill:#574a41;}.cls-3{fill:#fff;}</style></defs><title>vuba-icon</title><circle class="cls-1" cx="64.02" cy="63.76" r="63.98"/><path class="cls-2" d="M93.33,70.6h0A12.48,12.48,0,0,0,86.94,61a9.34,9.34,0,0,0,0-1.82.45.45,0,0,0,0-.11l0-2c0-1.53,0-3.11,0-4.65,0-3.71-.09-7.44-.22-11l0-1.27c-.11-3.18-.22-6.47-.54-9.8a19.34,19.34,0,0,0-2.32-8,8,8,0,0,0-5.78-4,8.16,8.16,0,0,0-6.77,2.25,11.63,11.63,0,0,0-3.45,7.42l-.06.35c-.07.4-.14.84-.19,1.34-.32,3.67-.52,7.28-.59,10.73q0,1.9-.12,3.81c-1.07-3-2.19-6-3.38-9l-.32-.82A26,26,0,0,0,59.24,27a11.13,11.13,0,0,0-5.71-3.87l-.29-.08-.3,0a8.91,8.91,0,0,0-4.68.69c-4.51,1.95-6.11,7.21-5.35,11.39a46,46,0,0,0,1.8,6.71c1.7,5,3.52,9.95,5.41,14.68A12.42,12.42,0,0,0,42,58.35c-2.91,1.7-4.35,4.52-4.31,8.39a9.45,9.45,0,0,0-9.25,6.6,16.71,16.71,0,0,0,.68,11.82,39,39,0,0,0,6.84,11A12.65,12.65,0,0,0,44,100.63a5.17,5.17,0,0,0,2.2,2.76,29.94,29.94,0,0,0,10.69,4.73,28.56,28.56,0,0,0,11,.25,26.35,26.35,0,0,0,13.5-6.7,35,35,0,0,0,6.58-8,39.69,39.69,0,0,0,4-9.21A31.92,31.92,0,0,0,93.33,70.6Z"/><path class="cls-3" d="M71.94,28.37a8,8,0,0,1,2.22-5.08,3.88,3.88,0,0,1,6.36.85,15.55,15.55,0,0,1,1.69,6.36c.27,3.1.36,6.21.44,9.31.11,3.94.24,7.88.19,11.82,0,2.22,0,2.69,0,4.91,0-1.88,0,.72,0,.78.13,1.44,0,2-2.21,2.07a25.86,25.86,0,0,0-8.45-.12c-.59.15-1.59-.76-1.57-1.51.06-4,.07-6.1.18-10.07.07-2.54.2-5.09.26-7.63.09-3.41.3-6.8.6-10.19C71.76,29.36,71.86,28.87,71.94,28.37Z"/><path class="cls-3" d="M52.06,27.19a6.4,6.4,0,0,1,3.6,2.2,26.21,26.21,0,0,1,3.79,6.72c3.95,8.59,3.69,8.47,5.79,13.42,1.32,3.11,2.3,5.64,3.55,8.8.34.87.18,1.48-.63,1.75-2.79.9-6.3.64-8.65,2.68-.61.53-1-.9-1.3-1.47L55.77,56q-3.33-7.15-6.29-14.55a46.33,46.33,0,0,1-2-6c-.71-2.8-.06-6.21,2.16-7.63A4.27,4.27,0,0,1,52.06,27.19Z"/><path class="cls-3" d="M50.11,61.6a7.4,7.4,0,0,1,5.25,3.33,1,1,0,0,1,.16,1,15.53,15.53,0,0,0-.71,2.19c-.81,4.07.84,7.18,4.18,9.25,2.09,1.29,2.34,2.93,2.17,5a6.06,6.06,0,0,1-1.77,4.05C57.75,88,55.8,87.64,54,87a10.15,10.15,0,0,1-5.24-4.56,70.24,70.24,0,0,1-3.78-6.57,22.15,22.15,0,0,1-2.45-7.56c-.19-2.18.08-4.24,2.18-5.46A7.8,7.8,0,0,1,50.11,61.6Z"/><path class="cls-3" d="M51,92.28c-.36,2.37-1.07,3.26-3.23,3.66A8.73,8.73,0,0,1,39,93.09a32.78,32.78,0,0,1-5.78-9.31,12.23,12.23,0,0,1-.56-8.65,5.34,5.34,0,0,1,6-3.69,2,2,0,0,1,1.54,1.31,58.86,58.86,0,0,0,8.11,14.07,6.15,6.15,0,0,0,1.06,1.1A3.89,3.89,0,0,1,51,92.28Z"/><path class="cls-3" d="M89.66,71.12a8.79,8.79,0,0,0-6.25-7.63c-3.68-1.21-7.46-1.05-11.23-.57-2.21.29-4.4.68-6.59,1A13.21,13.21,0,0,0,59,66.5c-3.1,2.55-3.45,6.68.17,8.87a11.34,11.34,0,0,0,3.91,1.5,47.27,47.27,0,0,0,13.12.36c.19,0,.42-.15.61.17a34.27,34.27,0,0,0-3.55,2.22c-.75.06-2.06,0-2.06,0a48.9,48.9,0,0,1-5.93-.35l-.29,0h0l-1.5-.19.15.79c.3,2.39.35,7.3-3.58,9.8l-.27.17-.16.1v0a4.89,4.89,0,0,1-1.92.49,10,10,0,0,1-3.44-.33c-.62-.19-.92-.24-1.08-.06,1.27,7.15-4,9-5.59,9.45-.06.23.17.47.73.85a26.29,26.29,0,0,0,9.37,4.17,24.69,24.69,0,0,0,9.61.21A22.65,22.65,0,0,0,79,98.93a31.32,31.32,0,0,0,5.89-7.18,35.94,35.94,0,0,0,3.59-8.36A28.89,28.89,0,0,0,89.66,71.12Z"/></svg>
