<svg id="Layer_1" data-name="Layer 1" xmlns="http://www.w3.org/2000/svg" viewBox="0 0 2407.14 992.76"><defs><style>.cls-1{fill:#84c551;}.cls-2{fill:#574a42;}.cls-3{fill:#fff;}</style></defs><title>LOGO-WhiteTypo</title><circle class="cls-1" cx="1864.25" cy="495.77" r="375.21"/><path class="cls-2" d="M2036.17,535.88h0c-3.59-25.43-16.74-45-37.5-56.34a55.27,55.27,0,0,0,.12-10.69c0-.21,0-.41,0-.63q-.08-5.84-.17-11.67c-.15-9-.3-18.27-.23-27.27.18-21.76-.58-43.62-1.3-64.76l-.26-7.43c-.63-18.67-1.28-38-3.15-57.49-1.25-13.17-3.93-30.44-13.59-47.2a46.88,46.88,0,0,0-33.9-23.45c-14.29-2-28.76,2.75-39.7,13.2-11.6,11.08-18.22,25.3-20.25,43.47-.11.69-.23,1.38-.34,2.07-.4,2.32-.84,4.95-1.1,7.88-1.9,21.52-3.08,42.68-3.51,62.91-.16,7.43-.41,14.87-.66,22.31-6.32-17.52-12.85-35.37-19.83-52.93l-1.91-4.83c-5.36-13.67-11.43-29.17-22.59-42.87-9.34-11.45-20.62-19.08-33.53-22.67L1801,257l-1.74-.19a52.58,52.58,0,0,0-27.45,4c-26.47,11.49-35.83,42.33-31.38,66.85A272.64,272.64,0,0,0,1751,367.07c10,29.41,20.63,58.31,31.74,86-15.17-2.2-31.13,1.42-47.52,11-17.07,9.93-25.53,26.47-25.28,49.17-23.84-.92-46.21,14.49-54.24,38.69-7.23,21.81-5.92,44.49,4,69.31,9.13,22.82,22.61,44.6,40.06,64.72,12.88,14.85,28.92,23.61,47.25,26,1.52,5.25,5.24,10.87,12.92,16.16,20,13.81,40.52,22.88,62.63,27.74a167.56,167.56,0,0,0,64.73,1.48c29.52-5.07,56.15-18.3,79.16-39.29a206.44,206.44,0,0,0,38.6-47.09,233.11,233.11,0,0,0,23.22-54C2037.2,586.66,2039.7,560.89,2036.17,535.88Z"/><path class="cls-3" d="M1910.69,288.22c1.22-11.35,4.73-21.6,13-29.81,11.86-11.72,29.24-9.51,37.29,5,6.37,11.52,8.8,24.15,9.94,37.28,1.58,18.17,2.09,36.39,2.59,54.61.63,23.08,1.39,46.17,1.09,69.29-.17,13,0,15.8.09,28.82.19-11.05.26,4.21.28,4.56.72,8.42.12,11.93-13,12.16-17.47-3.51-29.71-2.68-49.59-.73-3.45.85-9.28-4.47-9.21-8.85.39-23.27.45-35.77,1.09-59,.4-14.92,1.14-29.87,1.52-44.78.52-20,1.74-39.89,3.54-59.78C1909.65,294.05,1910.24,291.14,1910.69,288.22Z"/><path class="cls-3" d="M1794.11,281.29c8,1.47,15.05,6.06,21.12,12.9,10,11.26,15.84,25.51,22.23,39.41,23.14,50.41,21.62,49.69,34,78.7,7.76,18.27,13.47,33.11,20.8,51.61,2,5.11,1.1,8.72-3.68,10.26-16.38,5.27-36.94,3.79-50.71,15.75-3.57,3.1-6.07-5.28-7.62-8.62-7.08-15.29-7.21-15.52-14.32-30.79q-19.58-42-36.9-85.33a273.75,273.75,0,0,1-11.72-35c-4.14-16.42-.33-36.44,12.66-44.78A25,25,0,0,1,1794.11,281.29Z"/><path class="cls-3" d="M1782.66,483.11c14,1.9,23.41,9.1,30.81,19.52a5.87,5.87,0,0,1,.94,5.86c-1.51,4.24-3.28,8.45-4.15,12.83-4.75,23.86,4.94,42.14,24.52,54.27,12.21,7.55,13.73,17.2,12.72,29.35-.77,9.21-3.79,17.44-10.42,23.79-9.57,9.16-21,7-31.83,3.2-13.51-4.81-23.22-14.49-30.73-26.74-7.75-12.64-15.85-25.08-22.16-38.5-6.65-14.14-13-28.46-14.39-44.34-1.08-12.78.49-24.88,12.82-32.05C1760.81,484.47,1771.65,480.92,1782.66,483.11Z"/><path class="cls-3" d="M1787.78,663c-2.11,13.89-6.28,19.11-18.94,21.49-20,3.74-37.64-.83-51.45-16.75-14.21-16.39-25.78-34.43-33.85-54.6-6.61-16.52-9.14-33.18-3.32-50.72,5-15.14,20.22-24.88,35.44-21.62,4.46.95,7.15,3.39,9,7.68,12.7,29.31,27.28,57.57,47.61,82.48a33.94,33.94,0,0,0,6.22,6.49C1788.16,644.33,1789.93,653.66,1787.78,663Z"/><path class="cls-3" d="M2014.62,538.92c-3.11-22-15.23-37.69-36.68-44.76s-43.72-6.16-65.84-3.3c-12.92,1.67-25.76,4-38.65,6-14,2.15-27.41,5.92-38.5,15-18.22,14.94-20.22,39.17,1,52a67,67,0,0,0,23,8.77c25.54,4.57,51.2,4.7,76.94,2.12,1.12-.11,2.46-.88,3.56,1a190.07,190.07,0,0,0-20.79,13c-4.38.33-12.1.16-12.1.16-11.65.31-23.19-1-34.77-2l-1.72-.15h0c-1.7-.16-8.76-1.11-8.76-1.11l.86,4.64c1.73,14,2,42.81-21,57.48-.53.35-1.07.67-1.63,1-.32.19-.61.39-.94.56v-.1a28.26,28.26,0,0,1-11.25,2.9c-6.83.36-13.58,0-20.19-2-3.61-1.11-5.36-1.39-6.31-.33,7.45,42-23.51,53.06-32.79,55.41-.36,1.35,1,2.77,4.28,5,16.79,11.56,34.83,20,55,24.4a144.83,144.83,0,0,0,56.37,1.29c26.09-4.49,48.69-16.14,68.18-33.93a183.32,183.32,0,0,0,34.55-42.1,212.61,212.61,0,0,0,21.06-49.06C2014.35,587.23,2018.07,563.37,2014.62,538.92Z"/><path class="cls-1" d="M492.37,302.59l-28.94,56.92L330.1,621.07,196.77,359.51l-28.93-56.92h63.73l29.12,56.92L330.1,495.86l69.41-136.35,29.13-56.92Z"/><path class="cls-1" d="M831.46,302.51V461.75a159.24,159.24,0,0,1-318.48,0V302.51h56.74V461.75a102.51,102.51,0,1,0,205,0V302.51Z"/><path class="cls-1" d="M1458.54,621h-63.73l-29.13-56.93-69.41-136.35-69.41,136.35L1197.74,621H1134l28.93-56.93,133.33-261.55L1429.6,564.06Z"/><path class="cls-1" d="M1129.08,450.36a85.44,85.44,0,0,0,13.76-46.28V388.62a86,86,0,0,0-86-86H856V621h0v0H912.8v0h134.91c30.79.47,51.65-11.35,52.35-11.76a145.43,145.43,0,0,0,29-28A85.4,85.4,0,0,0,1142.84,535V519.24A85.66,85.66,0,0,0,1120,460.88C1123.9,456.76,1127,453.06,1129.08,450.36ZM912.8,417.85V359.34h144a29.28,29.28,0,0,1,29.25,29.26v15.48a29.29,29.29,0,0,1-29.25,29.15h-144ZM1086.08,535a29.29,29.29,0,0,1-29.25,29.14h-144V490.15h134.91c2.82.05,5.53,0,8.19-.19h.93a29.28,29.28,0,0,1,29.25,29.26V535Z"/><path class="cls-3" d="M1078.36,736c-.91.21-2.25.49-4,.81a30.2,30.2,0,0,1-5.7.46c-4.08,0-7.05-.8-8.91-2.3s-2.77-4.1-2.74-7.85l.41-44.23c0-4.53-1.18-7.84-3.65-9.9s-5.76-3.12-9.84-3.15a21,21,0,0,0-7.93,1.46,22.74,22.74,0,0,0-6.76,4,22,22,0,0,1,.47,4.76l-.51,55.47c-.91.21-2.24.49-4,.81a30.3,30.3,0,0,1-5.71.46c-4.08,0-7.05-.8-8.91-2.3s-2.77-4.1-2.73-7.85l.4-44.23c0-4.53-1.23-7.84-3.82-9.9a15.8,15.8,0,0,0-10-3.16,22.06,22.06,0,0,0-7.84,1.29,44.15,44.15,0,0,0-6,2.67L980,735.06l-4.09.81a30.07,30.07,0,0,1-5.79.46c-4,0-6.92-.81-8.83-2.3s-2.85-4.11-2.82-7.85l.5-54.61a11.8,11.8,0,0,1,1.76-6.53,17.88,17.88,0,0,1,5.32-5,47.11,47.11,0,0,1,13-5.58,56.92,56.92,0,0,1,16.19-2.15q15.48.13,25.1,8.56a47.54,47.54,0,0,1,11.37-5.85,43.25,43.25,0,0,1,15.07-2.24,48,48,0,0,1,12.58,1.73,27.17,27.17,0,0,1,10.24,5.28,25.42,25.42,0,0,1,6.81,9.17,31.15,31.15,0,0,1,2.43,13.21Z"/><path class="cls-3" d="M1177,697.28a50.24,50.24,0,0,1-3.14,17.75,38.69,38.69,0,0,1-8.54,13.44,36.44,36.44,0,0,1-13.18,8.48,51,51,0,0,1-34.37-.32,36.83,36.83,0,0,1-13-8.62,37.92,37.92,0,0,1-8.3-13.52,50.63,50.63,0,0,1-2.81-18,50.06,50.06,0,0,1,3.14-17.75,37.27,37.27,0,0,1,8.63-13.36,37.73,37.73,0,0,1,13.26-8.39,50.07,50.07,0,0,1,34,.32,37.1,37.1,0,0,1,13.1,8.71,38.11,38.11,0,0,1,8.38,13.6A49.56,49.56,0,0,1,1177,697.28Zm-41.45-26.07q-9.18-.09-14.52,6.58t-5.45,18.92q-.11,12.42,5,19.11t14.48,6.76q9.36.09,14.61-6.58t5.36-18.92q.12-12.26-5.1-19T1135.57,671.21Z"/><path class="cls-3" d="M1241.24,676.15q-4.14-3.45-11.28-3.51a32.93,32.93,0,0,0-9.11,1.11,29.51,29.51,0,0,0-7.26,3l-.57,61.59c-1,.22-2.38.49-4.09.81a29.17,29.17,0,0,1-5.79.46q-6-.06-8.82-2.29t-2.82-7.85l.5-54.62a11.74,11.74,0,0,1,1.76-6.62,18.65,18.65,0,0,1,5.32-4.88,44.13,44.13,0,0,1,13.15-5.58,66.52,66.52,0,0,1,18-2.13q17.52.17,27.07,8t9.4,22.8l-.48,52.4c-.91.21-2.24.49-4,.81a30.37,30.37,0,0,1-5.71.46q-6.12-.06-8.91-2.29t-2.73-7.86l.39-43Q1245.37,679.6,1241.24,676.15Z"/><path class="cls-3" d="M1302.92,709.27q2.3,8.7,8.73,12.67t16,4.06a39.55,39.55,0,0,0,13.2-2,48,48,0,0,0,9.82-4.42,11.22,11.22,0,0,1,3.88,3.78,9.32,9.32,0,0,1,1.49,5.12,8.94,8.94,0,0,1-2.36,6,18.69,18.69,0,0,1-6.33,4.45,39.4,39.4,0,0,1-9.47,2.8,63.36,63.36,0,0,1-11.75.92,58.21,58.21,0,0,1-18.26-2.89,37.4,37.4,0,0,1-14-8.38,38.31,38.31,0,0,1-9.06-13.78,50.41,50.41,0,0,1-3.14-19.09,47.88,47.88,0,0,1,3.4-18.34,37.6,37.6,0,0,1,8.88-13,35.22,35.22,0,0,1,12.92-7.71,46.81,46.81,0,0,1,15.5-2.41,43,43,0,0,1,15.29,2.78,35.26,35.26,0,0,1,11.84,7.42,33.45,33.45,0,0,1,7.64,11.3,35.85,35.85,0,0,1,2.68,14.23c0,3.18-.88,5.55-2.54,7.13a12.36,12.36,0,0,1-6.91,3Zm19.21-36.07a19.16,19.16,0,0,0-14,5.4q-5.66,5.49-6.43,15.68l37.81-5.27a18.88,18.88,0,0,0-4.83-11Q1330.46,673.28,1322.13,673.2Z"/><path class="cls-3" d="M1396.16,721.84q-4-8.55-9.49-23.06a359.23,359.23,0,0,1-10.9-35.15,13.65,13.65,0,0,1,4.79-3.44,15.46,15.46,0,0,1,6.65-1.39,12,12,0,0,1,7.21,2.11c1.86,1.38,3.34,3.84,4.44,7.36q7.77,25.77,17.73,52.22h.68q2.26-5.6,4.8-12.72t4.9-14.92q2.37-7.8,4.48-15.79t3.71-15.44a26.41,26.41,0,0,1,4.36-1.67,17.11,17.11,0,0,1,4.85-.63,14,14,0,0,1,7.64,2.11q3.21,2.07,3.17,6.66a66.68,66.68,0,0,1-2.34,14.36q-2.29,9.25-6,19.85t-8.45,21.36a193.57,193.57,0,0,1-9.36,18.89q-9,15.56-16.29,23.24t-14.28,7.61a12.18,12.18,0,0,1-8.73-3.23,14,14,0,0,1-4.1-7.95q2.75-2.36,5.84-5.47t6.18-6.67q3.11-3.54,5.85-7.26a77.46,77.46,0,0,0,4.83-7.27,19.85,19.85,0,0,1-3-1.3,11.35,11.35,0,0,1-2.87-2.33,30.57,30.57,0,0,1-3-3.94A42,42,0,0,1,1396.16,721.84Z"/></svg>
