<svg viewBox="0 0 2048 2048" xmlns="http://www.w3.org/2000/svg"><path d="M562.13 100.65h925.73c255.2 0 462.08 206.88 462.08 462.08v925.73c0 255.2-206.88 462.08-462.08 462.08H562.13c-255.2 0-462.08-206.88-462.08-462.08V562.73c0-255.2 206.88-462.08 462.08-462.08z" fill="#E95A27"/><linearGradient id="a" x1="1072.1" x2="1812.2" y1="1064" y2="1409.1" gradientUnits="userSpaceOnUse"><stop stop-color="#010101" stop-opacity=".3" offset=".2482"/><stop stop-color="#010101" stop-opacity="0" offset="1"/></linearGradient><path d="M1948.7 1443.7V801.96l-609.44-271.81c163.72 104.05 272.37 287.02 272.38 495.37.061 324-262.55 586.71-586.55 586.77-39.988.007-79.036-4.002-116.78-11.618l626.37 349.9c291.95-38.749 429.87-278.8 414.02-506.87z" fill="url(#a)" opacity=".4"/><circle cx="1024.7" cy="1027.3" r="515.23" fill="#fff"/><path d="M1024.9 438.93c-324 .061-586.61 262.77-586.55 586.77s262.77 586.61 586.77 586.55 586.61-262.77 586.55-586.77c-.006-323.95-262.62-586.56-586.57-586.55h-.197zm0 1101.9c-284 0-514.23-230.23-514.23-514.23S740.9 512.37 1024.9 512.37s514.23 230.23 514.23 514.23c.048 283.95-230.1 514.18-514.06 514.23h-.174z" clip-rule="evenodd" fill="#353757" fill-rule="evenodd"/><g fill="#353757"><path d="M1330.5 760.89c17.25 0 31.235 13.984 31.235 31.235v126.41c0 83.782-46.815 128.54-120.97 130.96-73.787 2.499-136.26-39.76-136.26-130.96v-126.41c0-17.25 13.984-31.235 31.235-31.235 17.25 0 31.235 13.984 31.235 31.235v126.41c0 50.416 28.148 76.653 74.155 74.522 42.7-2.793 57.986-32.263 57.986-74.522v-126.41c0-17.25 13.984-31.235 31.235-31.235h.146zM854.35 994.15h-81.884l89.749-114.31c15.535-19.727 14.255-49.542 5.026-71.359-7.973-20.573-24.354-36.942-44.915-46.184-10.033-4.416-20.792-6.822-31.638-7.214-4.875-.494-10.288-.771-15.997-.771-6.776 0-13.14.389-18.674 1.069-9.478.831-18.86 3.196-27.717 7.129-7.397 3.655-24.398 13.723-38.628 34.477-6.341 10.558-10.462 22.689-11.455 35.647-.146 1.257-.23 2.533-.23 3.829 0 .249.013.495.019.743-.01.5-.027.999-.027 1.501 0 2.638.53 5.16 1.477 7.481 4.142 13.337 16.58 23.023 31.28 23.023 13.602 0 25.265-8.294 30.213-20.099 1.822-3.057 2.877-6.607 2.877-10.405 0-4.067.624-8.035 1.756-11.82 2.432-14.856 14.189-26.572 29.067-28.94.285-.087.571-.191.856-.272.115.033.227.075.341.109 1.429-.177 2.881-.279 4.358-.279 19.381 0 35.092 15.711 35.092 35.092 0 10.299-4.438 19.563-11.505 25.982-.102.23-.19.459-.296.688l-122.57 155.74c-3.358 5.05-5.461 8.408-5.461 14.279 0 11.332 8.819 20.15 20.15 20.15h157.34c.902 0 1.781-.075 2.648-.183 14.761-.632 26.024-12.331 26.024-27.252.002-15.343-11.905-27.855-27.281-27.855z"/></g><path d="M737.93 1204c-5.018 5.417-5.229 13.742-.458 19.378 1.319 1.558 2.646 3.104 4.013 4.716 4.115 4.703 8.231 9.112 12.493 13.595 8.598 8.672 17.196 17.122 26.308 24.985 17.853 15.669 36.922 29.896 57.026 42.548 38.941 24.751 82.075 42.184 127.28 51.441 2.866.661 5.585 1.249 8.451 1.69l8.377 1.103c5.585.588 11.243 1.69 16.828 2.058l16.351 1.071c3.964.26 10.459.472 14.432.472h2.801l16.255-.213c.382-.005.764-.025 1.145-.06l16.257-1.491c11.231-.957 22.396-2.577 33.436-4.85 44.843-8.975 88.026-24.84 128.01-47.031l29.983-17.563c1.249-.808 2.499-1.47 3.747-2.131l1.47-1.028.882-.661 1.984-1.249 7.863-5.291 15.873-10.802c5.365-3.38 10.435-7.643 15.579-11.464l15.359-11.611c-2.646 14.844-5.732 29.835-8.892 45.121-3.454 14.991-7.569 29.835-11.611 45.121l18.372-12.493c3.013-2.131 6.099-4.262 8.965-6.614l4.527-3.5c2.724-2.106 4.633-5.113 5.368-8.476 1.703-7.794 3.325-15.558 4.948-23.37l2.866-14.183 2.278-14.403c2.32-14.307 4.391-28.532 6.276-42.548 1.041-7.744-4.262-14.839-11.942-16.276-11.234-2.102-22.315-4.395-33.134-6.799l-11.243-2.572-11.464-3.16c-7.496-2.131-14.991-4.483-22.339-6.761l-7.349 5.511c-2.315 1.911-4.745 3.678-7.276 5.291l-15.064 9.921c11.464 4.483 23.295 9.112 35.273 12.934 11.758 3.601 24.103 6.981 36.449 10.141l-14.844 11.243c-4.997 3.601-9.627 7.79-14.844 11.023l-15.212 10.362-7.496 5.071-1.984 1.249-.882.661-1.396.882c-1.132.799-2.337 1.488-3.601 2.058l-28.586 16.755c-37.791 21.013-78.625 36.013-121.03 44.459-10.41 2.12-20.938 3.617-31.526 4.483l-15.149 1.416c-.385.036-.77.057-1.157.062l-15.147.212h-1.747c-3.98 0-10.485-.213-14.457-.472l-15.25-.997c-5.218-.441-10.362-1.323-15.726-2.131l-7.863-1.103c-2.719-.367-5.218-1.028-7.716-1.47-42.327-8.474-82.701-24.773-119.05-48.06-18.858-11.923-36.746-25.315-53.498-40.05-8.525-7.349-16.608-15.212-24.618-23.442-3.968-4.042-7.863-8.304-11.611-12.566l-.108-.126c-5.706-6.641-15.91-6.867-21.86-.444l-.396.428z" fill="#E95A27"/></svg>