<svg width="121" height="64" viewBox="0 0 121 64" fill="none" xmlns="http://www.w3.org/2000/svg">
    <g filter="url(#filter0_d)">
    <rect x="111" y="54" width="101" height="44" rx="4" transform="rotate(-180 111 54)" fill="#EA5726"/>
    </g>
    <path d="M33.334 35.0137H30.0293L29.3379 37H27.7969L31.0195 28.4688H32.3496L35.5781 37H34.0312L33.334 35.0137ZM30.4453 33.8184H32.918L31.6816 30.2793L30.4453 33.8184ZM36.1465 33.7832C36.1465 32.8066 36.373 32.0234 36.8262 31.4336C37.2793 30.8398 37.8867 30.543 38.6484 30.543C39.3203 30.543 39.8633 30.7773 40.2773 31.2461V28H41.7012V37H40.4121L40.3418 36.3438C39.916 36.8594 39.3477 37.1172 38.6367 37.1172C37.8945 37.1172 37.293 36.8184 36.832 36.2207C36.375 35.623 36.1465 34.8105 36.1465 33.7832ZM37.5703 33.9062C37.5703 34.5508 37.6934 35.0547 37.9395 35.418C38.1895 35.7773 38.543 35.957 39 35.957C39.582 35.957 40.0078 35.6973 40.2773 35.1777V32.4707C40.0156 31.9629 39.5938 31.709 39.0117 31.709C38.5508 31.709 38.1953 31.8926 37.9453 32.2598C37.6953 32.623 37.5703 33.1719 37.5703 33.9062ZM42.9199 33.7832C42.9199 32.8066 43.1465 32.0234 43.5996 31.4336C44.0527 30.8398 44.6602 30.543 45.4219 30.543C46.0938 30.543 46.6367 30.7773 47.0508 31.2461V28H48.4746V37H47.1855L47.1152 36.3438C46.6895 36.8594 46.1211 37.1172 45.4102 37.1172C44.668 37.1172 44.0664 36.8184 43.6055 36.2207C43.1484 35.623 42.9199 34.8105 42.9199 33.7832ZM44.3438 33.9062C44.3438 34.5508 44.4668 35.0547 44.7129 35.418C44.9629 35.7773 45.3164 35.957 45.7734 35.957C46.3555 35.957 46.7812 35.6973 47.0508 35.1777V32.4707C46.7891 31.9629 46.3672 31.709 45.7852 31.709C45.3242 31.709 44.9688 31.8926 44.7188 32.2598C44.4688 32.623 44.3438 33.1719 44.3438 33.9062ZM56.2676 31.9609C56.0801 31.9297 55.8867 31.9141 55.6875 31.9141C55.0352 31.9141 54.5957 32.1641 54.3691 32.6641V37H52.9453V30.6602H54.3047L54.3398 31.3691C54.6836 30.8184 55.1602 30.543 55.7695 30.543C55.9727 30.543 56.1406 30.5703 56.2734 30.625L56.2676 31.9609ZM59.8418 37.1172C58.9395 37.1172 58.207 36.834 57.6445 36.2676C57.0859 35.6973 56.8066 34.9395 56.8066 33.9941V33.8184C56.8066 33.1855 56.9277 32.6211 57.1699 32.125C57.416 31.625 57.7598 31.2363 58.2012 30.959C58.6426 30.6816 59.1348 30.543 59.6777 30.543C60.541 30.543 61.207 30.8184 61.6758 31.3691C62.1484 31.9199 62.3848 32.6992 62.3848 33.707V34.2812H58.2422C58.2852 34.8047 58.459 35.2188 58.7637 35.5234C59.0723 35.8281 59.459 35.9805 59.9238 35.9805C60.5762 35.9805 61.1074 35.7168 61.5176 35.1895L62.2852 35.9219C62.0312 36.3008 61.6914 36.5957 61.2656 36.8066C60.8438 37.0137 60.3691 37.1172 59.8418 37.1172ZM59.6719 31.6855C59.2812 31.6855 58.9648 31.8223 58.7227 32.0957C58.4844 32.3691 58.332 32.75 58.2656 33.2383H60.9785V33.1328C60.9473 32.6562 60.8203 32.2969 60.5977 32.0547C60.375 31.8086 60.0664 31.6855 59.6719 31.6855ZM63.9961 37V31.7148H63.0293V30.6602H63.9961V30.0801C63.9961 29.377 64.1914 28.834 64.582 28.4512C64.9727 28.0684 65.5195 27.877 66.2227 27.877C66.4727 27.877 66.7383 27.9121 67.0195 27.9824L66.9844 29.0957C66.8281 29.0645 66.6465 29.0488 66.4395 29.0488C65.7598 29.0488 65.4199 29.3984 65.4199 30.0977V30.6602H66.709V31.7148H65.4199V37H63.9961ZM70.4004 37.1172C69.498 37.1172 68.7656 36.834 68.2031 36.2676C67.6445 35.6973 67.3652 34.9395 67.3652 33.9941V33.8184C67.3652 33.1855 67.4863 32.6211 67.7285 32.125C67.9746 31.625 68.3184 31.2363 68.7598 30.959C69.2012 30.6816 69.6934 30.543 70.2363 30.543C71.0996 30.543 71.7656 30.8184 72.2344 31.3691C72.707 31.9199 72.9434 32.6992 72.9434 33.707V34.2812H68.8008C68.8438 34.8047 69.0176 35.2188 69.3223 35.5234C69.6309 35.8281 70.0176 35.9805 70.4824 35.9805C71.1348 35.9805 71.666 35.7168 72.0762 35.1895L72.8438 35.9219C72.5898 36.3008 72.25 36.5957 71.8242 36.8066C71.4023 37.0137 70.9277 37.1172 70.4004 37.1172ZM70.2305 31.6855C69.8398 31.6855 69.5234 31.8223 69.2812 32.0957C69.043 32.3691 68.8906 32.75 68.8242 33.2383H71.5371V33.1328C71.5059 32.6562 71.3789 32.2969 71.1562 32.0547C70.9336 31.8086 70.625 31.6855 70.2305 31.6855ZM77.373 31.9609C77.1855 31.9297 76.9922 31.9141 76.793 31.9141C76.1406 31.9141 75.7012 32.1641 75.4746 32.6641V37H74.0508V30.6602H75.4102L75.4453 31.3691C75.7891 30.8184 76.2656 30.543 76.875 30.543C77.0781 30.543 77.2461 30.5703 77.3789 30.625L77.373 31.9609ZM81.5918 31.9609C81.4043 31.9297 81.2109 31.9141 81.0117 31.9141C80.3594 31.9141 79.9199 32.1641 79.6934 32.6641V37H78.2695V30.6602H79.6289L79.6641 31.3691C80.0078 30.8184 80.4844 30.543 81.0938 30.543C81.2969 30.543 81.4648 30.5703 81.5977 30.625L81.5918 31.9609ZM85.166 37.1172C84.2637 37.1172 83.5312 36.834 82.9688 36.2676C82.4102 35.6973 82.1309 34.9395 82.1309 33.9941V33.8184C82.1309 33.1855 82.252 32.6211 82.4941 32.125C82.7402 31.625 83.084 31.2363 83.5254 30.959C83.9668 30.6816 84.459 30.543 85.002 30.543C85.8652 30.543 86.5312 30.8184 87 31.3691C87.4727 31.9199 87.709 32.6992 87.709 33.707V34.2812H83.5664C83.6094 34.8047 83.7832 35.2188 84.0879 35.5234C84.3965 35.8281 84.7832 35.9805 85.248 35.9805C85.9004 35.9805 86.4316 35.7168 86.8418 35.1895L87.6094 35.9219C87.3555 36.3008 87.0156 36.5957 86.5898 36.8066C86.168 37.0137 85.6934 37.1172 85.166 37.1172ZM84.9961 31.6855C84.6055 31.6855 84.2891 31.8223 84.0469 32.0957C83.8086 32.3691 83.6562 32.75 83.5898 33.2383H86.3027V33.1328C86.2715 32.6562 86.1445 32.2969 85.9219 32.0547C85.6992 31.8086 85.3906 31.6855 84.9961 31.6855ZM92.1387 31.9609C91.9512 31.9297 91.7578 31.9141 91.5586 31.9141C90.9062 31.9141 90.4668 32.1641 90.2402 32.6641V37H88.8164V30.6602H90.1758L90.2109 31.3691C90.5547 30.8184 91.0312 30.543 91.6406 30.543C91.8438 30.543 92.0117 30.5703 92.1445 30.625L92.1387 31.9609Z" fill="white"/>
    <defs>
    <filter id="filter0_d" x="0" y="0" width="121" height="64" filterUnits="userSpaceOnUse" color-interpolation-filters="sRGB">
    <feFlood flood-opacity="0" result="BackgroundImageFix"/>
    <feColorMatrix in="SourceAlpha" type="matrix" values="0 0 0 0 0 0 0 0 0 0 0 0 0 0 0 0 0 0 127 0" result="hardAlpha"/>
    <feOffset/>
    <feGaussianBlur stdDeviation="5"/>
    <feColorMatrix type="matrix" values="0 0 0 0 0 0 0 0 0 0 0 0 0 0 0 0 0 0 0.1 0"/>
    <feBlend mode="normal" in2="BackgroundImageFix" result="effect1_dropShadow"/>
    <feBlend mode="normal" in="SourceGraphic" in2="effect1_dropShadow" result="shape"/>
    </filter>
    </defs>
    </svg>
    