<svg width="72" height="31" viewBox="0 0 72 31" fill="none" xmlns="http://www.w3.org/2000/svg">
<rect width="71.0779" height="30.03" rx="3" transform="matrix(1 0 0 -1 0 30.0312)" fill="#4F5351"/>
<path d="M19.1973 16.3555C19.0996 17.2539 18.7773 17.9414 18.2305 18.418C17.6875 18.8945 16.9629 19.1328 16.0566 19.1328C15.4238 19.1328 14.8633 18.9746 14.375 18.6582C13.8906 18.3418 13.5156 17.8945 13.25 17.3164C12.9844 16.7344 12.8496 16.0703 12.8457 15.3242V14.2168C12.8457 13.459 12.9785 12.7871 13.2441 12.2012C13.5098 11.6152 13.8906 11.1641 14.3867 10.8477C14.8867 10.5273 15.4609 10.3672 16.1094 10.3672C17.0234 10.3672 17.7441 10.6152 18.2715 11.1113C18.8027 11.6035 19.1113 12.2852 19.1973 13.1562H18.4707C18.291 11.707 17.5039 10.9824 16.1094 10.9824C15.3359 10.9824 14.7188 11.2715 14.2578 11.8496C13.8008 12.4277 13.5723 13.2266 13.5723 14.2461V15.2891C13.5723 16.2734 13.7949 17.0586 14.2402 17.6445C14.6895 18.2305 15.2949 18.5234 16.0566 18.5234C16.8105 18.5234 17.3789 18.3438 17.7617 17.9844C18.1445 17.6211 18.3809 17.0781 18.4707 16.3555H19.1973ZM20.3984 15.752C20.3984 15.1426 20.5156 14.5938 20.75 14.1055C20.9883 13.6172 21.3223 13.2383 21.752 12.9688C22.1855 12.6953 22.6758 12.5586 23.2227 12.5586C24.0664 12.5586 24.75 12.8555 25.2734 13.4492C25.7969 14.0391 26.0586 14.8223 26.0586 15.7988V15.9453C26.0586 16.5586 25.9395 17.1113 25.7012 17.6035C25.4668 18.0918 25.1348 18.4688 24.7051 18.7344C24.2754 19 23.7852 19.1328 23.2344 19.1328C22.3945 19.1328 21.7109 18.8379 21.1836 18.248C20.6602 17.6543 20.3984 16.8691 20.3984 15.8926V15.752ZM21.1016 15.9453C21.1016 16.7031 21.2969 17.3262 21.6875 17.8145C22.082 18.2988 22.5977 18.541 23.2344 18.541C23.8672 18.541 24.3789 18.2988 24.7695 17.8145C25.1641 17.3262 25.3613 16.6836 25.3613 15.8867V15.752C25.3613 15.2676 25.2715 14.8242 25.0918 14.4219C24.9121 14.0195 24.6602 13.709 24.3359 13.4902C24.0117 13.2676 23.6406 13.1562 23.2227 13.1562C22.5977 13.1562 22.0879 13.4023 21.6934 13.8945C21.2988 14.3828 21.1016 15.0234 21.1016 15.8164V15.9453ZM32.6094 15.9102C32.6094 16.8984 32.3906 17.6836 31.9531 18.2656C31.5156 18.8438 30.9297 19.1328 30.1953 19.1328C29.3281 19.1328 28.6641 18.8281 28.2031 18.2188V21.4531H27.5059V12.6758H28.1562L28.1914 13.5723C28.6484 12.8965 29.3105 12.5586 30.1777 12.5586C30.9355 12.5586 31.5293 12.8457 31.959 13.4199C32.3926 13.9941 32.6094 14.791 32.6094 15.8105V15.9102ZM31.9062 15.7871C31.9062 14.9785 31.7402 14.3398 31.4082 13.8711C31.0762 13.4023 30.6133 13.168 30.0195 13.168C29.5898 13.168 29.2207 13.2715 28.9121 13.4785C28.6035 13.6855 28.3672 13.9863 28.2031 14.3809V17.4219C28.3711 17.7852 28.6113 18.0625 28.9238 18.2539C29.2363 18.4453 29.6055 18.541 30.0312 18.541C30.6211 18.541 31.0801 18.3066 31.4082 17.8379C31.7402 17.3652 31.9062 16.6816 31.9062 15.7871ZM36.1074 18.0078L37.959 12.6758H38.7148L36.0078 20.0938L35.8672 20.4219C35.5195 21.1914 34.9824 21.5762 34.2559 21.5762C34.0879 21.5762 33.9082 21.5488 33.7168 21.4941L33.7109 20.9141L34.0742 20.9492C34.418 20.9492 34.6953 20.8633 34.9062 20.6914C35.1211 20.5234 35.3027 20.2324 35.4512 19.8184L35.7617 18.9629L33.3711 12.6758H34.1387L36.1074 18.0078ZM43.5078 19.0156H42.8047V10.0156H43.5078V19.0156ZM46.2031 19.0156H45.5V12.6758H46.2031V19.0156ZM45.377 10.8418C45.377 10.709 45.4199 10.5977 45.5059 10.5078C45.5918 10.4141 45.709 10.3672 45.8574 10.3672C46.0059 10.3672 46.123 10.4141 46.209 10.5078C46.2988 10.5977 46.3438 10.709 46.3438 10.8418C46.3438 10.9746 46.2988 11.0859 46.209 11.1758C46.123 11.2656 46.0059 11.3105 45.8574 11.3105C45.709 11.3105 45.5918 11.2656 45.5059 11.1758C45.4199 11.0859 45.377 10.9746 45.377 10.8418ZM48.7812 12.6758L48.8047 13.7598C49.043 13.3691 49.3398 13.0723 49.6953 12.8691C50.0508 12.6621 50.4434 12.5586 50.873 12.5586C51.5527 12.5586 52.0586 12.75 52.3906 13.1328C52.7227 13.5156 52.8906 14.0898 52.8945 14.8555V19.0156H52.1973V14.8496C52.1934 14.2832 52.0723 13.8613 51.834 13.584C51.5996 13.3066 51.2227 13.168 50.7031 13.168C50.2695 13.168 49.8848 13.3047 49.5488 13.5781C49.2168 13.8477 48.9707 14.2129 48.8105 14.6738V19.0156H48.1133V12.6758H48.7812ZM56.2168 15.8223L55.4141 16.5957V19.0156H54.7109V10.0156H55.4141V15.7754L56.0762 15.0605L58.502 12.6758H59.3867L56.6973 15.3477L59.6211 19.0156H58.7832L56.2168 15.8223Z" fill="white"/>
</svg>
